<mxfile host="Electron" modified="2023-12-14T09:02:09.420Z" agent="Mozilla/5.0 (Windows NT 10.0; Win64; x64) AppleWebKit/537.36 (KHTML, like Gecko) draw.io/22.1.2 Chrome/114.0.5735.289 Electron/25.9.4 Safari/537.36" etag="M30E1xPa9kHHgTwuDOyb" version="22.1.2" type="device">
  <diagram name="Page-1" id="ZUpqu2cZZ9KhSVhHRlnI">
    <mxGraphModel dx="2810" dy="2734" grid="1" gridSize="10" guides="1" tooltips="1" connect="1" arrows="1" fold="1" page="1" pageScale="1" pageWidth="850" pageHeight="1100" math="0" shadow="0">
      <root>
        <mxCell id="0" />
        <mxCell id="1" parent="0" />
        <mxCell id="NO1AC8OuLP__qubKFZFA-1" value="&lt;pre style=&quot;background-color:#2b2b2b;color:#a9b7c6;font-family:&#39;JetBrains Mono&#39;,monospace;font-size:9.8pt;&quot;&gt;###########################################&lt;br&gt;MODULE: pdf_ninja&lt;br&gt;&lt;br&gt;&lt;span style=&quot;color:#cc7832;&quot;&gt;def &lt;/span&gt;&lt;span style=&quot;color:#ffc66d;&quot;&gt;refresh_combo_combo_listing&lt;/span&gt;(&lt;span style=&quot;color:#72737a;&quot;&gt;self&lt;/span&gt;&lt;span style=&quot;color:#cc7832;&quot;&gt;, &lt;/span&gt;&lt;span style=&quot;color:#72737a;&quot;&gt;listing&lt;/span&gt;&lt;span style=&quot;color:#cc7832;&quot;&gt;, &lt;/span&gt;&lt;span style=&quot;color:#72737a;&quot;&gt;frame&lt;/span&gt;):&lt;br&gt;&lt;br&gt;&lt;span style=&quot;color:#cc7832;&quot;&gt;def &lt;/span&gt;&lt;span style=&quot;color:#ffc66d;&quot;&gt;refresh_listings&lt;/span&gt;(&lt;span style=&quot;color:#72737a;&quot;&gt;self&lt;/span&gt;):&lt;br&gt;&lt;br&gt;&lt;span style=&quot;color:#cc7832;&quot;&gt;def &lt;/span&gt;&lt;span style=&quot;color:#ffc66d;&quot;&gt;display_pdf_listing&lt;/span&gt;(&lt;span style=&quot;color:#72737a;&quot;&gt;self&lt;/span&gt;):&lt;br&gt;    &lt;span style=&quot;color:#cc7832;&quot;&gt;return &lt;/span&gt;listing&lt;br&gt;&lt;br&gt;&lt;span style=&quot;color:#cc7832;&quot;&gt;def &lt;/span&gt;&lt;span style=&quot;color:#ffc66d;&quot;&gt;display_listing&lt;/span&gt;(&lt;span style=&quot;color:#72737a;&quot;&gt;self&lt;/span&gt;&lt;span style=&quot;color:#cc7832;&quot;&gt;, &lt;/span&gt;&lt;span style=&quot;color:#72737a;&quot;&gt;lst&lt;/span&gt;):&lt;br&gt;&lt;br&gt;&lt;span style=&quot;color:#cc7832;&quot;&gt;def &lt;/span&gt;&lt;span style=&quot;color:#ffc66d;&quot;&gt;merge_pages&lt;/span&gt;(self):&lt;br&gt;    self.u_pages_icon_refresh()&lt;br&gt;&lt;br&gt;&lt;span style=&quot;color:#cc7832;&quot;&gt;def &lt;/span&gt;&lt;span style=&quot;color:#ffc66d;&quot;&gt;get_combo_selection&lt;/span&gt;(&lt;span style=&quot;color:#72737a;&quot;&gt;self&lt;/span&gt;):&lt;br&gt;    &lt;span style=&quot;color:#cc7832;&quot;&gt;return &lt;/span&gt;selection&lt;br&gt;&lt;br&gt;&lt;span style=&quot;color:#cc7832;&quot;&gt;def &lt;/span&gt;&lt;span style=&quot;color:#ffc66d;&quot;&gt;refresh_combo_combo_images&lt;/span&gt;(&lt;span style=&quot;color:#72737a;&quot;&gt;self&lt;/span&gt;&lt;span style=&quot;color:#cc7832;&quot;&gt;, &lt;/span&gt;&lt;span style=&quot;color:#72737a;&quot;&gt;listing&lt;/span&gt;&lt;span style=&quot;color:#cc7832;&quot;&gt;, &lt;/span&gt;&lt;span style=&quot;color:#72737a;&quot;&gt;in_dir&lt;/span&gt;):&lt;br&gt;&lt;br&gt;&lt;span style=&quot;color:#cc7832;&quot;&gt;def &lt;/span&gt;&lt;span style=&quot;color:#ffc66d;&quot;&gt;test_combo_combo_listing&lt;/span&gt;(&lt;span style=&quot;color:#72737a;&quot;&gt;self&lt;/span&gt;&lt;span style=&quot;color:#cc7832;&quot;&gt;, &lt;/span&gt;&lt;span style=&quot;color:#72737a;&quot;&gt;listing&lt;/span&gt;&lt;span style=&quot;color:#cc7832;&quot;&gt;, &lt;/span&gt;&lt;span style=&quot;color:#72737a;&quot;&gt;in_dir&lt;/span&gt;&lt;span style=&quot;color:#cc7832;&quot;&gt;, &lt;/span&gt;&lt;span style=&quot;color:#72737a;&quot;&gt;image_dir&lt;/span&gt;&lt;span style=&quot;color:#cc7832;&quot;&gt;, &lt;/span&gt;&lt;span style=&quot;color:#72737a;&quot;&gt;out_frame&lt;/span&gt;):&lt;br&gt;&lt;br&gt;&lt;span style=&quot;color:#cc7832;&quot;&gt;def &lt;/span&gt;&lt;span style=&quot;color:#ffc66d;&quot;&gt;new_combo_combo_listing&lt;/span&gt;(&lt;span style=&quot;color:#72737a;&quot;&gt;self&lt;/span&gt;&lt;span style=&quot;color:#cc7832;&quot;&gt;, &lt;/span&gt;&lt;span style=&quot;color:#72737a;&quot;&gt;listing&lt;/span&gt;&lt;span style=&quot;color:#cc7832;&quot;&gt;, &lt;/span&gt;&lt;span style=&quot;color:#72737a;&quot;&gt;in_dir&lt;/span&gt;&lt;span style=&quot;color:#cc7832;&quot;&gt;, &lt;/span&gt;&lt;span style=&quot;color:#72737a;&quot;&gt;image_dir&lt;/span&gt;&lt;span style=&quot;color:#cc7832;&quot;&gt;, &lt;/span&gt;&lt;span style=&quot;color:#72737a;&quot;&gt;out_frame&lt;/span&gt;):&lt;br&gt;&lt;br&gt;&lt;span style=&quot;color:#cc7832;&quot;&gt;def &lt;/span&gt;&lt;span style=&quot;color:#ffc66d;&quot;&gt;generate_combo_sort_files&lt;/span&gt;(&lt;span style=&quot;color:#72737a;&quot;&gt;self&lt;/span&gt;&lt;span style=&quot;color:#cc7832;&quot;&gt;, &lt;/span&gt;&lt;span style=&quot;color:#72737a;&quot;&gt;in_file&lt;/span&gt;):&lt;br&gt;    &lt;span style=&quot;color:#cc7832;&quot;&gt;pass&lt;br&gt;&lt;/span&gt;&lt;span style=&quot;color:#cc7832;&quot;&gt;&lt;br&gt;&lt;/span&gt;&lt;span style=&quot;color:#cc7832;&quot;&gt;def &lt;/span&gt;&lt;span style=&quot;color:#ffc66d;&quot;&gt;refresh_combo_listing&lt;/span&gt;(&lt;span style=&quot;color:#72737a;&quot;&gt;self&lt;/span&gt;):&lt;br&gt;&lt;br&gt;&lt;span style=&quot;color:#cc7832;&quot;&gt;def &lt;/span&gt;&lt;span style=&quot;color:#ffc66d;&quot;&gt;u_combo_listing_refresh&lt;/span&gt;(&lt;span style=&quot;color:#72737a;&quot;&gt;self&lt;/span&gt;):&lt;br&gt;&lt;br&gt;&lt;span style=&quot;color:#cc7832;&quot;&gt;def &lt;/span&gt;&lt;span style=&quot;color:#ffc66d;&quot;&gt;u_combo_combo_listing_refresh&lt;/span&gt;(&lt;span style=&quot;color:#72737a;&quot;&gt;self&lt;/span&gt;):&lt;br&gt;&lt;br&gt;&lt;span style=&quot;color:#cc7832;&quot;&gt;def &lt;/span&gt;&lt;span style=&quot;color:#ffc66d;&quot;&gt;u_pages_icon_refresh&lt;/span&gt;(&lt;span style=&quot;color:#72737a;&quot;&gt;self&lt;/span&gt;):&lt;br&gt;&lt;br&gt;&lt;span style=&quot;color:#cc7832;&quot;&gt;def &lt;/span&gt;&lt;span style=&quot;color:#ffc66d;&quot;&gt;get_combo_selection&lt;/span&gt;(&lt;span style=&quot;color:#72737a;&quot;&gt;self&lt;/span&gt;):&lt;br&gt;    &lt;span style=&quot;color:#cc7832;&quot;&gt;return &lt;/span&gt;selection&lt;br&gt;&lt;br&gt;&lt;span style=&quot;color:#cc7832;&quot;&gt;def &lt;/span&gt;&lt;span style=&quot;color:#ffc66d;&quot;&gt;split_combo_into_pages&lt;/span&gt;(self):&lt;br&gt;    self.u_combo_listing_refresh()&lt;br&gt;&lt;br&gt;&lt;span style=&quot;color:#cc7832;&quot;&gt;def &lt;/span&gt;&lt;span style=&quot;color:#ffc66d;&quot;&gt;split_combo_combo_into_pages&lt;/span&gt;(&lt;span style=&quot;color:#72737a;&quot;&gt;self&lt;/span&gt;):&lt;br&gt;&lt;br&gt;&lt;span style=&quot;color:#cc7832;&quot;&gt;def &lt;/span&gt;&lt;span style=&quot;color:#ffc66d;&quot;&gt;combo_refresh&lt;/span&gt;(&lt;span style=&quot;color:#72737a;&quot;&gt;self&lt;/span&gt;):&lt;br&gt;&lt;br&gt;&lt;span style=&quot;color:#cc7832;&quot;&gt;def &lt;/span&gt;&lt;span style=&quot;color:#ffc66d;&quot;&gt;display_meta_info&lt;/span&gt;(self):&lt;br&gt;    self.display_pdf_listing(selection)&lt;br&gt;&lt;br&gt;&lt;span style=&quot;color:#cc7832;&quot;&gt;def &lt;/span&gt;&lt;span style=&quot;color:#ffc66d;&quot;&gt;split_pdf_2_pages&lt;/span&gt;(&lt;span style=&quot;color:#72737a;&quot;&gt;self&lt;/span&gt;):&lt;br&gt;&lt;br&gt;&lt;span style=&quot;color:#cc7832;&quot;&gt;def &lt;/span&gt;&lt;span style=&quot;color:#ffc66d;&quot;&gt;split_pdf_lst_2_pages&lt;/span&gt;(self&lt;span style=&quot;color:#cc7832;&quot;&gt;, &lt;/span&gt;&lt;span style=&quot;color:#72737a;&quot;&gt;listing&lt;/span&gt;&lt;span style=&quot;color:#cc7832;&quot;&gt;, &lt;/span&gt;&lt;span style=&quot;color:#72737a;&quot;&gt;in_dir&lt;/span&gt;):&lt;br&gt;    self.pages_refresh()&lt;br&gt;&lt;br&gt;&lt;span style=&quot;color:#cc7832;&quot;&gt;def &lt;/span&gt;&lt;span style=&quot;color:#ffc66d;&quot;&gt;split_combo_pdf_lst_2_pages&lt;/span&gt;(self&lt;span style=&quot;color:#cc7832;&quot;&gt;, &lt;/span&gt;&lt;span style=&quot;color:#72737a;&quot;&gt;listing&lt;/span&gt;&lt;span style=&quot;color:#cc7832;&quot;&gt;, &lt;/span&gt;&lt;span style=&quot;color:#72737a;&quot;&gt;in_dir&lt;/span&gt;):&lt;br&gt;    self.pages_refresh()&lt;br&gt;&lt;br&gt;&lt;span style=&quot;color:#cc7832;&quot;&gt;def &lt;/span&gt;&lt;span style=&quot;color:#ffc66d;&quot;&gt;pages_refresh&lt;/span&gt;(&lt;span style=&quot;color:#72737a;&quot;&gt;self&lt;/span&gt;):&lt;br&gt;&lt;br&gt;&lt;span style=&quot;color:#cc7832;&quot;&gt;def &lt;/span&gt;&lt;span style=&quot;color:#ffc66d;&quot;&gt;get_page_selection&lt;/span&gt;(&lt;span style=&quot;color:#72737a;&quot;&gt;self&lt;/span&gt;):&lt;br&gt;    &lt;span style=&quot;color:#cc7832;&quot;&gt;return &lt;/span&gt;selection&lt;br&gt;&lt;br&gt;&lt;span style=&quot;color:#cc7832;&quot;&gt;def &lt;/span&gt;&lt;span style=&quot;color:#ffc66d;&quot;&gt;get_pages_listing&lt;/span&gt;(self):&lt;br&gt;    listing = self.pdf_t.list_pages_dir()&lt;br&gt;    &lt;span style=&quot;color:#cc7832;&quot;&gt;return &lt;/span&gt;listing&lt;br&gt;&lt;br&gt;&lt;span style=&quot;color:#cc7832;&quot;&gt;def &lt;/span&gt;&lt;span style=&quot;color:#ffc66d;&quot;&gt;get_images_listing&lt;/span&gt;(self):&lt;br&gt;    listing = self.pdf_t.list_images_dir()&lt;br&gt;    &lt;span style=&quot;color:#cc7832;&quot;&gt;return &lt;/span&gt;listing&lt;br&gt;&lt;br&gt;&lt;span style=&quot;color:#cc7832;&quot;&gt;def &lt;/span&gt;&lt;span style=&quot;color:#ffc66d;&quot;&gt;get_combo_listing&lt;/span&gt;(self):&lt;br&gt;    listing = self.pdf_t.list_combo_dir()&lt;br&gt;    &lt;span style=&quot;color:#cc7832;&quot;&gt;return &lt;/span&gt;listing&lt;br&gt;&lt;br&gt;&lt;span style=&quot;color:#cc7832;&quot;&gt;def &lt;/span&gt;&lt;span style=&quot;color:#ffc66d;&quot;&gt;get_combo_pages_listing&lt;/span&gt;(self):&lt;br&gt;    listing = self.pdf_t.list_combo_pages_dir()&lt;br&gt;    &lt;span style=&quot;color:#cc7832;&quot;&gt;return &lt;/span&gt;listing&lt;br&gt;&lt;br&gt;&lt;span style=&quot;color:#cc7832;&quot;&gt;def &lt;/span&gt;&lt;span style=&quot;color:#ffc66d;&quot;&gt;get_combo_combo_pages_listing&lt;/span&gt;(self):&lt;br&gt;    listing = self.pdf_t.list_combo_combo_pages_dir()&lt;br&gt;    &lt;span style=&quot;color:#cc7832;&quot;&gt;return &lt;/span&gt;listing&lt;br&gt;&lt;br&gt;&lt;span style=&quot;color:#cc7832;&quot;&gt;def &lt;/span&gt;&lt;span style=&quot;color:#ffc66d;&quot;&gt;get_combo_infiles_listing&lt;/span&gt;(self):&lt;br&gt;    listing = self.pdf_t.list_combo_infiles_dir()&lt;br&gt;    &lt;span style=&quot;color:#cc7832;&quot;&gt;return &lt;/span&gt;listing&lt;br&gt;&lt;br&gt;&lt;span style=&quot;color:#cc7832;&quot;&gt;def &lt;/span&gt;&lt;span style=&quot;color:#ffc66d;&quot;&gt;file_icon_build&lt;/span&gt;(&lt;span style=&quot;color:#72737a;&quot;&gt;self&lt;/span&gt;):&lt;br&gt;    &lt;span style=&quot;color:#cc7832;&quot;&gt;return &lt;/span&gt;python_img&lt;br&gt;&lt;br&gt;&lt;br&gt;&lt;/pre&gt;" style="text;html=1;strokeColor=none;fillColor=none;align=center;verticalAlign=middle;whiteSpace=wrap;rounded=0;" parent="1" vertex="1">
          <mxGeometry x="-640" y="270" width="60" height="30" as="geometry" />
        </mxCell>
        <mxCell id="NO1AC8OuLP__qubKFZFA-23" value="&lt;pre style=&quot;background-color:#2b2b2b;color:#a9b7c6;font-family:&#39;JetBrains Mono&#39;,monospace;font-size:9.8pt;&quot;&gt;def &lt;span style=&quot;color:#ffc66d;&quot;&gt;refresh_combo_combo_listing&lt;/span&gt;(&lt;span style=&quot;color:#72737a;&quot;&gt;self&lt;/span&gt;&lt;span style=&quot;color:#cc7832;&quot;&gt;, &lt;/span&gt;&lt;span style=&quot;color:#72737a;&quot;&gt;listing&lt;/span&gt;&lt;span style=&quot;color:#cc7832;&quot;&gt;, &lt;/span&gt;&lt;span style=&quot;color:#72737a;&quot;&gt;frame&lt;/span&gt;):&lt;br&gt;&lt;/pre&gt;" style="text;align=center;fontStyle=1;verticalAlign=middle;spacingLeft=3;spacingRight=3;strokeColor=none;rotatable=0;points=[[0,0.5],[1,0.5]];portConstraint=eastwest;html=1;" parent="1" vertex="1">
          <mxGeometry x="1750" y="-560" width="80" height="26" as="geometry" />
        </mxCell>
        <mxCell id="NO1AC8OuLP__qubKFZFA-28" value="&lt;pre style=&quot;background-color:#2b2b2b;color:#a9b7c6;font-family:&#39;JetBrains Mono&#39;,monospace;font-size:9.8pt;&quot;&gt;def &lt;span style=&quot;color:#ffc66d;&quot;&gt;display_listing&lt;/span&gt;(&lt;span style=&quot;color:#72737a;&quot;&gt;self&lt;/span&gt;&lt;span style=&quot;color:#cc7832;&quot;&gt;, &lt;/span&gt;&lt;span style=&quot;color:#72737a;&quot;&gt;lst&lt;/span&gt;):&lt;br&gt;&lt;/pre&gt;" style="text;html=1;strokeColor=none;fillColor=none;align=center;verticalAlign=middle;whiteSpace=wrap;rounded=0;" parent="1" vertex="1">
          <mxGeometry x="1680" y="-370" width="60" height="30" as="geometry" />
        </mxCell>
        <mxCell id="NO1AC8OuLP__qubKFZFA-30" value="&lt;pre style=&quot;background-color:#2b2b2b;color:#a9b7c6;font-family:&#39;JetBrains Mono&#39;,monospace;font-size:9.8pt;&quot;&gt;def &lt;span style=&quot;color:#ffc66d;&quot;&gt;merge_pages&lt;/span&gt;(self):&lt;br&gt;    self.u_pages_icon_refresh()&lt;br&gt;&lt;/pre&gt;" style="text;html=1;strokeColor=none;fillColor=none;align=center;verticalAlign=middle;whiteSpace=wrap;rounded=0;" parent="1" vertex="1">
          <mxGeometry x="1680" y="-640" width="60" height="30" as="geometry" />
        </mxCell>
        <mxCell id="NO1AC8OuLP__qubKFZFA-32" value="&lt;pre style=&quot;background-color:#2b2b2b;color:#a9b7c6;font-family:&#39;JetBrains Mono&#39;,monospace;font-size:9.8pt;&quot;&gt;def &lt;span style=&quot;color:#ffc66d;&quot;&gt;get_combo_selection&lt;/span&gt;(&lt;span style=&quot;color:#72737a;&quot;&gt;self&lt;/span&gt;):&lt;br&gt;    &lt;span style=&quot;color:#cc7832;&quot;&gt;return &lt;/span&gt;selection&lt;/pre&gt;" style="text;html=1;strokeColor=none;fillColor=none;align=center;verticalAlign=middle;whiteSpace=wrap;rounded=0;" parent="1" vertex="1">
          <mxGeometry x="1690" y="-710" width="60" height="30" as="geometry" />
        </mxCell>
        <mxCell id="NO1AC8OuLP__qubKFZFA-33" value="&lt;pre style=&quot;background-color:#2b2b2b;color:#a9b7c6;font-family:&#39;JetBrains Mono&#39;,monospace;font-size:9.8pt;&quot;&gt;def &lt;span style=&quot;color:#ffc66d;&quot;&gt;refresh_combo_combo_images&lt;/span&gt;(&lt;span style=&quot;color:#72737a;&quot;&gt;self&lt;/span&gt;&lt;span style=&quot;color:#cc7832;&quot;&gt;, &lt;/span&gt;&lt;span style=&quot;color:#72737a;&quot;&gt;listing&lt;/span&gt;&lt;span style=&quot;color:#cc7832;&quot;&gt;, &lt;/span&gt;&lt;span style=&quot;color:#72737a;&quot;&gt;in_dir&lt;/span&gt;):&lt;br&gt;&lt;/pre&gt;" style="text;html=1;strokeColor=none;fillColor=none;align=center;verticalAlign=middle;whiteSpace=wrap;rounded=0;" parent="1" vertex="1">
          <mxGeometry x="1740" y="-330" width="60" height="30" as="geometry" />
        </mxCell>
        <mxCell id="NO1AC8OuLP__qubKFZFA-34" value="&lt;pre style=&quot;background-color:#2b2b2b;color:#a9b7c6;font-family:&#39;JetBrains Mono&#39;,monospace;font-size:9.8pt;&quot;&gt;def &lt;span style=&quot;color:#ffc66d;&quot;&gt;test_combo_combo_listing&lt;/span&gt;(&lt;span style=&quot;color:#72737a;&quot;&gt;self&lt;/span&gt;&lt;span style=&quot;color:#cc7832;&quot;&gt;, &lt;/span&gt;&lt;span style=&quot;color:#72737a;&quot;&gt;listing&lt;/span&gt;&lt;span style=&quot;color:#cc7832;&quot;&gt;, &lt;/span&gt;&lt;span style=&quot;color:#72737a;&quot;&gt;in_dir&lt;/span&gt;&lt;span style=&quot;color:#cc7832;&quot;&gt;, &lt;/span&gt;&lt;span style=&quot;color:#72737a;&quot;&gt;image_dir&lt;/span&gt;&lt;span style=&quot;color:#cc7832;&quot;&gt;, &lt;/span&gt;&lt;span style=&quot;color:#72737a;&quot;&gt;out_frame&lt;/span&gt;):&lt;br&gt;&lt;/pre&gt;" style="text;html=1;strokeColor=none;fillColor=none;align=center;verticalAlign=middle;whiteSpace=wrap;rounded=0;" parent="1" vertex="1">
          <mxGeometry x="1020" y="885" width="60" height="30" as="geometry" />
        </mxCell>
        <mxCell id="NO1AC8OuLP__qubKFZFA-35" value="&lt;pre style=&quot;background-color:#2b2b2b;color:#a9b7c6;font-family:&#39;JetBrains Mono&#39;,monospace;font-size:9.8pt;&quot;&gt;def &lt;span style=&quot;color:#ffc66d;&quot;&gt;new_combo_combo_listing&lt;/span&gt;(&lt;span style=&quot;color:#72737a;&quot;&gt;self&lt;/span&gt;&lt;span style=&quot;color:#cc7832;&quot;&gt;, &lt;/span&gt;&lt;span style=&quot;color:#72737a;&quot;&gt;listing&lt;/span&gt;&lt;span style=&quot;color:#cc7832;&quot;&gt;, &lt;/span&gt;&lt;span style=&quot;color:#72737a;&quot;&gt;in_dir&lt;/span&gt;&lt;span style=&quot;color:#cc7832;&quot;&gt;, &lt;/span&gt;&lt;span style=&quot;color:#72737a;&quot;&gt;image_dir&lt;/span&gt;&lt;span style=&quot;color:#cc7832;&quot;&gt;, &lt;/span&gt;&lt;span style=&quot;color:#72737a;&quot;&gt;out_frame&lt;/span&gt;):&lt;br&gt;&lt;/pre&gt;" style="text;html=1;strokeColor=none;fillColor=none;align=center;verticalAlign=middle;whiteSpace=wrap;rounded=0;" parent="1" vertex="1">
          <mxGeometry x="1700" y="-240" width="60" height="30" as="geometry" />
        </mxCell>
        <mxCell id="NO1AC8OuLP__qubKFZFA-36" value="&lt;pre style=&quot;background-color:#2b2b2b;color:#a9b7c6;font-family:&#39;JetBrains Mono&#39;,monospace;font-size:9.8pt;&quot;&gt;def &lt;span style=&quot;color:#ffc66d;&quot;&gt;generate_combo_sort_files&lt;/span&gt;(&lt;span style=&quot;color:#72737a;&quot;&gt;self&lt;/span&gt;&lt;span style=&quot;color:#cc7832;&quot;&gt;, &lt;/span&gt;&lt;span style=&quot;color:#72737a;&quot;&gt;in_file&lt;/span&gt;):&lt;br&gt;    &lt;span style=&quot;color:#cc7832;&quot;&gt;pass&lt;/span&gt;&lt;/pre&gt;" style="text;html=1;strokeColor=none;fillColor=none;align=center;verticalAlign=middle;whiteSpace=wrap;rounded=0;" parent="1" vertex="1">
          <mxGeometry x="1650" y="-170" width="60" height="30" as="geometry" />
        </mxCell>
        <mxCell id="NO1AC8OuLP__qubKFZFA-37" value="&lt;pre style=&quot;background-color:#2b2b2b;color:#a9b7c6;font-family:&#39;JetBrains Mono&#39;,monospace;font-size:9.8pt;&quot;&gt;def &lt;span style=&quot;color:#ffc66d;&quot;&gt;refresh_combo_listing&lt;/span&gt;(&lt;span style=&quot;color:#72737a;&quot;&gt;self&lt;/span&gt;):&lt;br&gt;&lt;/pre&gt;" style="text;html=1;strokeColor=none;fillColor=none;align=center;verticalAlign=middle;whiteSpace=wrap;rounded=0;" parent="1" vertex="1">
          <mxGeometry x="1610" y="-140" width="60" height="30" as="geometry" />
        </mxCell>
        <mxCell id="NO1AC8OuLP__qubKFZFA-38" value="&lt;pre style=&quot;background-color:#2b2b2b;color:#a9b7c6;font-family:&#39;JetBrains Mono&#39;,monospace;font-size:9.8pt;&quot;&gt;def &lt;span style=&quot;color:#ffc66d;&quot;&gt;u_combo_listing_refresh&lt;/span&gt;(&lt;span style=&quot;color:#72737a;&quot;&gt;self&lt;/span&gt;):&lt;br&gt;&lt;/pre&gt;" style="text;html=1;strokeColor=none;fillColor=none;align=center;verticalAlign=middle;whiteSpace=wrap;rounded=0;" parent="1" vertex="1">
          <mxGeometry x="860" y="2405" width="60" height="30" as="geometry" />
        </mxCell>
        <mxCell id="NO1AC8OuLP__qubKFZFA-39" value="&lt;pre style=&quot;background-color:#2b2b2b;color:#a9b7c6;font-family:&#39;JetBrains Mono&#39;,monospace;font-size:9.8pt;&quot;&gt;def &lt;span style=&quot;color:#ffc66d;&quot;&gt;u_combo_combo_listing_refresh&lt;/span&gt;(&lt;span style=&quot;color:#72737a;&quot;&gt;self&lt;/span&gt;):&lt;br&gt;&lt;/pre&gt;" style="text;html=1;strokeColor=none;fillColor=none;align=center;verticalAlign=middle;whiteSpace=wrap;rounded=0;" parent="1" vertex="1">
          <mxGeometry x="1590" y="-70" width="60" height="30" as="geometry" />
        </mxCell>
        <mxCell id="NO1AC8OuLP__qubKFZFA-40" value="&lt;pre style=&quot;background-color:#2b2b2b;color:#a9b7c6;font-family:&#39;JetBrains Mono&#39;,monospace;font-size:9.8pt;&quot;&gt;def &lt;span style=&quot;color:#ffc66d;&quot;&gt;u_pages_icon_refresh&lt;/span&gt;(&lt;span style=&quot;color:#72737a;&quot;&gt;self&lt;/span&gt;):&lt;br&gt;&lt;/pre&gt;" style="text;html=1;strokeColor=none;fillColor=none;align=center;verticalAlign=middle;whiteSpace=wrap;rounded=0;" parent="1" vertex="1">
          <mxGeometry x="1630" y="-40" width="60" height="30" as="geometry" />
        </mxCell>
        <mxCell id="NO1AC8OuLP__qubKFZFA-41" value="&lt;pre style=&quot;background-color:#2b2b2b;color:#a9b7c6;font-family:&#39;JetBrains Mono&#39;,monospace;font-size:9.8pt;&quot;&gt;def &lt;span style=&quot;color:#ffc66d;&quot;&gt;get_combo_selection&lt;/span&gt;(&lt;span style=&quot;color:#72737a;&quot;&gt;self&lt;/span&gt;):&lt;br&gt;    &lt;span style=&quot;color:#cc7832;&quot;&gt;return &lt;/span&gt;selection&lt;br&gt;&lt;/pre&gt;" style="text;html=1;strokeColor=none;fillColor=none;align=center;verticalAlign=middle;whiteSpace=wrap;rounded=0;" parent="1" vertex="1">
          <mxGeometry x="1620" width="60" height="30" as="geometry" />
        </mxCell>
        <mxCell id="NO1AC8OuLP__qubKFZFA-42" value="&lt;pre style=&quot;background-color:#2b2b2b;color:#a9b7c6;font-family:&#39;JetBrains Mono&#39;,monospace;font-size:9.8pt;&quot;&gt;def &lt;span style=&quot;color:#ffc66d;&quot;&gt;split_combo_into_pages&lt;/span&gt;(self):&lt;br&gt;    self.u_combo_listing_refresh()&lt;/pre&gt;" style="text;html=1;strokeColor=none;fillColor=none;align=center;verticalAlign=middle;whiteSpace=wrap;rounded=0;" parent="1" vertex="1">
          <mxGeometry x="1620" y="40" width="60" height="30" as="geometry" />
        </mxCell>
        <mxCell id="NO1AC8OuLP__qubKFZFA-43" value="&lt;pre style=&quot;background-color:#2b2b2b;color:#a9b7c6;font-family:&#39;JetBrains Mono&#39;,monospace;font-size:9.8pt;&quot;&gt;def &lt;span style=&quot;color:#ffc66d;&quot;&gt;split_combo_combo_into_pages&lt;/span&gt;(self):&lt;br&gt;    self.u_combo_listing_refresh()&lt;br&gt;&lt;/pre&gt;" style="text;html=1;strokeColor=none;fillColor=none;align=center;verticalAlign=middle;whiteSpace=wrap;rounded=0;" parent="1" vertex="1">
          <mxGeometry x="860" y="1325" width="60" height="30" as="geometry" />
        </mxCell>
        <mxCell id="NO1AC8OuLP__qubKFZFA-45" value="&lt;pre style=&quot;background-color:#2b2b2b;color:#a9b7c6;font-family:&#39;JetBrains Mono&#39;,monospace;font-size:9.8pt;&quot;&gt;def &lt;span style=&quot;color:#ffc66d;&quot;&gt;combo_refresh&lt;/span&gt;(&lt;span style=&quot;color:#72737a;&quot;&gt;self&lt;/span&gt;):&lt;br&gt;&lt;/pre&gt;" style="text;html=1;strokeColor=none;fillColor=none;align=center;verticalAlign=middle;whiteSpace=wrap;rounded=0;" parent="1" vertex="1">
          <mxGeometry x="1610" y="120" width="60" height="30" as="geometry" />
        </mxCell>
        <mxCell id="NO1AC8OuLP__qubKFZFA-47" value="&lt;pre style=&quot;background-color:#2b2b2b;color:#a9b7c6;font-family:&#39;JetBrains Mono&#39;,monospace;font-size:9.8pt;&quot;&gt;def &lt;span style=&quot;color:#ffc66d;&quot;&gt;split_pdf_2_pages&lt;/span&gt;(&lt;span style=&quot;color:#72737a;&quot;&gt;self&lt;/span&gt;):&lt;br&gt;&lt;/pre&gt;" style="text;html=1;strokeColor=none;fillColor=none;align=center;verticalAlign=middle;whiteSpace=wrap;rounded=0;" parent="1" vertex="1">
          <mxGeometry x="840" y="-450" width="60" height="30" as="geometry" />
        </mxCell>
        <mxCell id="NO1AC8OuLP__qubKFZFA-49" value="&lt;pre style=&quot;background-color:#2b2b2b;color:#a9b7c6;font-family:&#39;JetBrains Mono&#39;,monospace;font-size:9.8pt;&quot;&gt;def &lt;span style=&quot;color:#ffc66d;&quot;&gt;split_pdf_lst_2_pages&lt;/span&gt;(self&lt;span style=&quot;color:#cc7832;&quot;&gt;, &lt;/span&gt;&lt;span style=&quot;color:#72737a;&quot;&gt;listing&lt;/span&gt;&lt;span style=&quot;color:#cc7832;&quot;&gt;, &lt;/span&gt;&lt;span style=&quot;color:#72737a;&quot;&gt;in_dir&lt;/span&gt;):&lt;br&gt;    self.pages_refresh()&lt;br&gt;&lt;/pre&gt;" style="text;html=1;strokeColor=none;fillColor=none;align=center;verticalAlign=middle;whiteSpace=wrap;rounded=0;" parent="1" vertex="1">
          <mxGeometry x="1620" y="240" width="60" height="30" as="geometry" />
        </mxCell>
        <mxCell id="NO1AC8OuLP__qubKFZFA-51" value="&lt;pre style=&quot;background-color:#2b2b2b;color:#a9b7c6;font-family:&#39;JetBrains Mono&#39;,monospace;font-size:9.8pt;&quot;&gt;def &lt;span style=&quot;color:#ffc66d;&quot;&gt;pages_refresh&lt;/span&gt;(&lt;span style=&quot;color:#72737a;&quot;&gt;self&lt;/span&gt;):&lt;br&gt;&lt;/pre&gt;" style="text;html=1;strokeColor=none;fillColor=none;align=center;verticalAlign=middle;whiteSpace=wrap;rounded=0;" parent="1" vertex="1">
          <mxGeometry x="1620" y="320" width="60" height="30" as="geometry" />
        </mxCell>
        <mxCell id="NO1AC8OuLP__qubKFZFA-52" value="&lt;pre style=&quot;background-color:#2b2b2b;color:#a9b7c6;font-family:&#39;JetBrains Mono&#39;,monospace;font-size:9.8pt;&quot;&gt;def &lt;span style=&quot;color:#ffc66d;&quot;&gt;split_combo_pdf_lst_2_pages&lt;/span&gt;(self&lt;span style=&quot;color:#cc7832;&quot;&gt;, &lt;/span&gt;&lt;span style=&quot;color:#72737a;&quot;&gt;listing&lt;/span&gt;&lt;span style=&quot;color:#cc7832;&quot;&gt;, &lt;/span&gt;&lt;span style=&quot;color:#72737a;&quot;&gt;in_dir&lt;/span&gt;):&lt;br&gt;    self.pages_refresh()&lt;br&gt;&lt;/pre&gt;" style="text;html=1;strokeColor=none;fillColor=none;align=center;verticalAlign=middle;whiteSpace=wrap;rounded=0;" parent="1" vertex="1">
          <mxGeometry x="1630" y="280" width="60" height="30" as="geometry" />
        </mxCell>
        <mxCell id="NO1AC8OuLP__qubKFZFA-53" value="&lt;pre style=&quot;background-color:#2b2b2b;color:#a9b7c6;font-family:&#39;JetBrains Mono&#39;,monospace;font-size:9.8pt;&quot;&gt;def &lt;span style=&quot;color:#ffc66d;&quot;&gt;get_page_selection&lt;/span&gt;(&lt;span style=&quot;color:#72737a;&quot;&gt;self&lt;/span&gt;):&lt;br&gt;    &lt;span style=&quot;color:#cc7832;&quot;&gt;return &lt;/span&gt;selection&lt;br&gt;&lt;/pre&gt;" style="text;html=1;strokeColor=none;fillColor=none;align=center;verticalAlign=middle;whiteSpace=wrap;rounded=0;" parent="1" vertex="1">
          <mxGeometry x="1620" y="370" width="60" height="30" as="geometry" />
        </mxCell>
        <mxCell id="NO1AC8OuLP__qubKFZFA-54" value="&lt;pre style=&quot;background-color:#2b2b2b;color:#a9b7c6;font-family:&#39;JetBrains Mono&#39;,monospace;font-size:9.8pt;&quot;&gt;def &lt;span style=&quot;color:#ffc66d;&quot;&gt;get_pages_listing&lt;/span&gt;(self):&lt;br&gt;    listing = self.pdf_t.list_pages_dir()&lt;br&gt;    &lt;span style=&quot;color:#cc7832;&quot;&gt;return &lt;/span&gt;listing&lt;br&gt;&lt;/pre&gt;" style="text;html=1;strokeColor=none;fillColor=none;align=center;verticalAlign=middle;whiteSpace=wrap;rounded=0;" parent="1" vertex="1">
          <mxGeometry x="1610" y="410" width="60" height="40" as="geometry" />
        </mxCell>
        <mxCell id="NO1AC8OuLP__qubKFZFA-55" value="&lt;pre style=&quot;background-color:#2b2b2b;color:#a9b7c6;font-family:&#39;JetBrains Mono&#39;,monospace;font-size:9.8pt;&quot;&gt;def &lt;span style=&quot;color:#ffc66d;&quot;&gt;get_images_listing&lt;/span&gt;(self):&lt;br&gt;    listing = self.pdf_t.list_images_dir()&lt;br&gt;    &lt;span style=&quot;color:#cc7832;&quot;&gt;return &lt;/span&gt;listing&lt;br&gt;&lt;/pre&gt;" style="text;html=1;strokeColor=none;fillColor=none;align=center;verticalAlign=middle;whiteSpace=wrap;rounded=0;" parent="1" vertex="1">
          <mxGeometry x="1620" y="480" width="60" height="30" as="geometry" />
        </mxCell>
        <mxCell id="NO1AC8OuLP__qubKFZFA-56" value="&lt;pre style=&quot;background-color:#2b2b2b;color:#a9b7c6;font-family:&#39;JetBrains Mono&#39;,monospace;font-size:9.8pt;&quot;&gt;def &lt;span style=&quot;color:#ffc66d;&quot;&gt;get_combo_listing&lt;/span&gt;(self):&lt;br&gt;    listing = self.pdf_t.list_combo_dir()&lt;br&gt;    &lt;span style=&quot;color:#cc7832;&quot;&gt;return &lt;/span&gt;listing&lt;br&gt;&lt;/pre&gt;" style="text;html=1;strokeColor=none;fillColor=none;align=center;verticalAlign=middle;whiteSpace=wrap;rounded=0;" parent="1" vertex="1">
          <mxGeometry x="860" y="455" width="60" height="30" as="geometry" />
        </mxCell>
        <mxCell id="NO1AC8OuLP__qubKFZFA-57" value="&lt;pre style=&quot;background-color:#2b2b2b;color:#a9b7c6;font-family:&#39;JetBrains Mono&#39;,monospace;font-size:9.8pt;&quot;&gt;def &lt;span style=&quot;color:#ffc66d;&quot;&gt;get_combo_pages_listing&lt;/span&gt;(self):&lt;br&gt;    listing = self.pdf_t.list_combo_pages_dir()&lt;br&gt;    &lt;span style=&quot;color:#cc7832;&quot;&gt;return &lt;/span&gt;listing&lt;br&gt;&lt;/pre&gt;" style="text;html=1;strokeColor=none;fillColor=none;align=center;verticalAlign=middle;whiteSpace=wrap;rounded=0;" parent="1" vertex="1">
          <mxGeometry x="890" y="1685" width="60" height="30" as="geometry" />
        </mxCell>
        <mxCell id="NO1AC8OuLP__qubKFZFA-58" value="&lt;pre style=&quot;background-color:#2b2b2b;color:#a9b7c6;font-family:&#39;JetBrains Mono&#39;,monospace;font-size:9.8pt;&quot;&gt;def &lt;span style=&quot;color:#ffc66d;&quot;&gt;get_combo_combo_pages_listing&lt;/span&gt;(self):&lt;br&gt;    listing = self.pdf_t.list_combo_combo_pages_dir()&lt;br&gt;    &lt;span style=&quot;color:#cc7832;&quot;&gt;return &lt;/span&gt;listing&lt;br&gt;&lt;/pre&gt;" style="text;html=1;strokeColor=none;fillColor=none;align=center;verticalAlign=middle;whiteSpace=wrap;rounded=0;" parent="1" vertex="1">
          <mxGeometry x="930" y="790" width="60" height="30" as="geometry" />
        </mxCell>
        <mxCell id="NO1AC8OuLP__qubKFZFA-59" value="&lt;pre style=&quot;background-color:#2b2b2b;color:#a9b7c6;font-family:&#39;JetBrains Mono&#39;,monospace;font-size:9.8pt;&quot;&gt;def &lt;span style=&quot;color:#ffc66d;&quot;&gt;get_combo_infiles_listing&lt;/span&gt;(self):&lt;br&gt;    listing = self.pdf_t.list_combo_infiles_dir()&lt;br&gt;    &lt;span style=&quot;color:#cc7832;&quot;&gt;return &lt;/span&gt;listing&lt;br&gt;&lt;/pre&gt;" style="text;html=1;strokeColor=none;fillColor=none;align=center;verticalAlign=middle;whiteSpace=wrap;rounded=0;" parent="1" vertex="1">
          <mxGeometry x="1300" y="1000" width="60" height="30" as="geometry" />
        </mxCell>
        <mxCell id="NO1AC8OuLP__qubKFZFA-60" value="&lt;pre style=&quot;background-color:#2b2b2b;color:#a9b7c6;font-family:&#39;JetBrains Mono&#39;,monospace;font-size:9.8pt;&quot;&gt;def &lt;span style=&quot;color:#ffc66d;&quot;&gt;file_icon_build&lt;/span&gt;(&lt;span style=&quot;color:#72737a;&quot;&gt;self&lt;/span&gt;):&lt;br&gt;    &lt;span style=&quot;color:#cc7832;&quot;&gt;return &lt;/span&gt;python_img&lt;br&gt;&lt;/pre&gt;" style="text;html=1;strokeColor=none;fillColor=none;align=center;verticalAlign=middle;whiteSpace=wrap;rounded=0;" parent="1" vertex="1">
          <mxGeometry x="1270" y="1060" width="60" height="30" as="geometry" />
        </mxCell>
        <mxCell id="NO1AC8OuLP__qubKFZFA-64" value="&lt;pre style=&quot;background-color:#2b2b2b;color:#a9b7c6;font-family:&#39;JetBrains Mono&#39;,monospace;font-size:9.8pt;&quot;&gt;self.tabview_t = customtkinter.CTkTabview(&lt;br&gt;    &lt;span style=&quot;color:#aa4926;&quot;&gt;master&lt;/span&gt;=ninjaFrame&lt;span style=&quot;color:#cc7832;&quot;&gt;,&lt;/span&gt;&lt;/pre&gt;" style="rounded=0;whiteSpace=wrap;html=1;" parent="1" vertex="1">
          <mxGeometry x="65" y="-1300" width="360" height="50" as="geometry" />
        </mxCell>
        <mxCell id="NO1AC8OuLP__qubKFZFA-65" value="&lt;pre style=&quot;background-color:#2b2b2b;color:#a9b7c6;font-family:&#39;JetBrains Mono&#39;,monospace;font-size:9.8pt;&quot;&gt;&lt;pre style=&quot;font-family: &amp;quot;JetBrains Mono&amp;quot;, monospace; font-size: 9.8pt;&quot;&gt;self.tabview_t.add(&lt;span style=&quot;color:#6a8759;&quot;&gt;&quot;commands&quot;&lt;/span&gt;)  &lt;span style=&quot;color:#808080;&quot;&gt;# add tab at the end&lt;br&gt;&lt;/span&gt;&lt;span style=&quot;color:#94558d;&quot;&gt;self&lt;/span&gt;.tabview_t.add(&lt;span style=&quot;color:#6a8759;&quot;&gt;&quot;user flow&quot;&lt;/span&gt;)  &lt;span style=&quot;color:#808080;&quot;&gt;# add tab at the end&lt;/span&gt;&lt;/pre&gt;&lt;/pre&gt;" style="rounded=0;whiteSpace=wrap;html=1;" parent="1" vertex="1">
          <mxGeometry x="220" y="-870" width="450" height="60" as="geometry" />
        </mxCell>
        <mxCell id="NO1AC8OuLP__qubKFZFA-67" value="&lt;pre style=&quot;background-color:#2b2b2b;color:#a9b7c6;font-family:&#39;JetBrains Mono&#39;,monospace;font-size:9.8pt;&quot;&gt;&lt;pre style=&quot;font-family: &amp;quot;JetBrains Mono&amp;quot;, monospace; font-size: 9.8pt;&quot;&gt;self.textbox = customtkinter.CTkTextbox(&lt;br&gt;    &lt;span style=&quot;color:#94558d;&quot;&gt;self&lt;/span&gt;.tabview_t.tab(&lt;span style=&quot;color:#6a8759;&quot;&gt;&quot;commands&quot;&lt;/span&gt;)&lt;span style=&quot;color:#cc7832;&quot;&gt;, &lt;/span&gt;&lt;/pre&gt;&lt;/pre&gt;" style="rounded=0;whiteSpace=wrap;html=1;" parent="1" vertex="1">
          <mxGeometry x="220" y="-810" width="450" height="60" as="geometry" />
        </mxCell>
        <mxCell id="NO1AC8OuLP__qubKFZFA-115" style="edgeStyle=orthogonalEdgeStyle;rounded=0;orthogonalLoop=1;jettySize=auto;html=1;" parent="1" source="NO1AC8OuLP__qubKFZFA-68" target="NO1AC8OuLP__qubKFZFA-114" edge="1">
          <mxGeometry relative="1" as="geometry" />
        </mxCell>
        <mxCell id="NO1AC8OuLP__qubKFZFA-68" value="&lt;pre style=&quot;background-color:#2b2b2b;color:#a9b7c6;font-family:&#39;JetBrains Mono&#39;,monospace;font-size:9.8pt;&quot;&gt;&lt;pre style=&quot;font-family: &amp;quot;JetBrains Mono&amp;quot;, monospace; font-size: 9.8pt;&quot;&gt;self.button_combine_pages = customtkinter.CTkButton(&lt;br&gt;    &lt;span style=&quot;color:#aa4926;&quot;&gt;master&lt;/span&gt;=&lt;span style=&quot;color:#94558d;&quot;&gt;self&lt;/span&gt;.tabview_t.tab(&lt;span style=&quot;color:#6a8759;&quot;&gt;&quot;commands&quot;&lt;/span&gt;)&lt;span style=&quot;color:#cc7832;&quot;&gt;,&lt;br&gt;&lt;/span&gt;&lt;span style=&quot;color:#cc7832;&quot;&gt;    &lt;/span&gt;&lt;span style=&quot;color:#aa4926;&quot;&gt;text&lt;/span&gt;=&lt;span style=&quot;color:#6a8759;&quot;&gt;&#39;Refresh Listings&#39;&lt;/span&gt;&lt;span style=&quot;color:#cc7832;&quot;&gt;,&lt;br&gt;&lt;/span&gt;&lt;span style=&quot;color:#cc7832;&quot;&gt;    &lt;/span&gt;&lt;span style=&quot;color:#aa4926;&quot;&gt;command&lt;/span&gt;=&lt;span style=&quot;color:#94558d;&quot;&gt;self&lt;/span&gt;.refresh_listings&lt;/pre&gt;&lt;/pre&gt;" style="rounded=0;whiteSpace=wrap;html=1;" parent="1" vertex="1">
          <mxGeometry x="220" y="-750" width="450" height="90" as="geometry" />
        </mxCell>
        <mxCell id="NO1AC8OuLP__qubKFZFA-124" style="edgeStyle=orthogonalEdgeStyle;rounded=0;orthogonalLoop=1;jettySize=auto;html=1;" parent="1" source="NO1AC8OuLP__qubKFZFA-69" target="NO1AC8OuLP__qubKFZFA-122" edge="1">
          <mxGeometry relative="1" as="geometry" />
        </mxCell>
        <mxCell id="NO1AC8OuLP__qubKFZFA-69" value="&lt;pre style=&quot;background-color:#2b2b2b;color:#a9b7c6;font-family:&#39;JetBrains Mono&#39;,monospace;font-size:9.8pt;&quot;&gt;&lt;pre style=&quot;font-family: &amp;quot;JetBrains Mono&amp;quot;, monospace; font-size: 9.8pt;&quot;&gt;self.button_ls_pdfs = customtkinter.CTkButton(&lt;br&gt;    &lt;span style=&quot;color:#aa4926;&quot;&gt;master&lt;/span&gt;=&lt;span style=&quot;color:#94558d;&quot;&gt;self&lt;/span&gt;.tabview_t.tab(&lt;span style=&quot;color:#6a8759;&quot;&gt;&quot;commands&quot;&lt;/span&gt;)&lt;span style=&quot;color:#cc7832;&quot;&gt;,&lt;br&gt;&lt;/span&gt;&lt;span style=&quot;color:#cc7832;&quot;&gt;    &lt;/span&gt;&lt;span style=&quot;color:#aa4926;&quot;&gt;text&lt;/span&gt;=&lt;span style=&quot;color:#6a8759;&quot;&gt;&#39;List Pdfs&#39;&lt;/span&gt;&lt;span style=&quot;color:#cc7832;&quot;&gt;,&lt;br&gt;&lt;/span&gt;&lt;span style=&quot;color:#cc7832;&quot;&gt;    &lt;/span&gt;&lt;span style=&quot;color:#aa4926;&quot;&gt;command&lt;/span&gt;=&lt;span style=&quot;color:#94558d;&quot;&gt;self&lt;/span&gt;.display_pdf_listing&lt;/pre&gt;&lt;/pre&gt;" style="rounded=0;whiteSpace=wrap;html=1;" parent="1" vertex="1">
          <mxGeometry x="220" y="-660" width="450" height="90" as="geometry" />
        </mxCell>
        <mxCell id="NO1AC8OuLP__qubKFZFA-128" style="edgeStyle=orthogonalEdgeStyle;rounded=0;orthogonalLoop=1;jettySize=auto;html=1;entryX=0;entryY=0.5;entryDx=0;entryDy=0;" parent="1" source="NO1AC8OuLP__qubKFZFA-70" target="NO1AC8OuLP__qubKFZFA-127" edge="1">
          <mxGeometry relative="1" as="geometry" />
        </mxCell>
        <mxCell id="NO1AC8OuLP__qubKFZFA-70" value="&lt;pre style=&quot;background-color:#2b2b2b;color:#a9b7c6;font-family:&#39;JetBrains Mono&#39;,monospace;font-size:9.8pt;&quot;&gt;&lt;pre style=&quot;font-family: &amp;quot;JetBrains Mono&amp;quot;, monospace; font-size: 9.8pt;&quot;&gt;self.button_display_pdf_info = customtkinter.CTkButton(&lt;br&gt;    &lt;span style=&quot;color:#aa4926;&quot;&gt;master&lt;/span&gt;=&lt;span style=&quot;color:#94558d;&quot;&gt;self&lt;/span&gt;.tabview_t.tab(&lt;span style=&quot;color:#6a8759;&quot;&gt;&quot;commands&quot;&lt;/span&gt;)&lt;span style=&quot;color:#cc7832;&quot;&gt;,&lt;br&gt;&lt;/span&gt;&lt;span style=&quot;color:#cc7832;&quot;&gt;    &lt;/span&gt;&lt;span style=&quot;color:#aa4926;&quot;&gt;text&lt;/span&gt;=&lt;span style=&quot;color:#6a8759;&quot;&gt;&#39;Display PDF Meta Info&#39;&lt;/span&gt;&lt;span style=&quot;color:#cc7832;&quot;&gt;,&lt;br&gt;&lt;/span&gt;&lt;span style=&quot;color:#cc7832;&quot;&gt;    &lt;/span&gt;&lt;span style=&quot;color:#aa4926;&quot;&gt;command&lt;/span&gt;=&lt;span style=&quot;color:#cc7832;&quot;&gt;lambda&lt;/span&gt;: &lt;span style=&quot;color:#94558d;&quot;&gt;self&lt;/span&gt;.display_meta_info()&lt;br&gt;&lt;/pre&gt;&lt;/pre&gt;" style="rounded=0;whiteSpace=wrap;html=1;" parent="1" vertex="1">
          <mxGeometry x="220" y="-570" width="450" height="90" as="geometry" />
        </mxCell>
        <mxCell id="NO1AC8OuLP__qubKFZFA-99" style="edgeStyle=orthogonalEdgeStyle;rounded=0;orthogonalLoop=1;jettySize=auto;html=1;" parent="1" source="NO1AC8OuLP__qubKFZFA-71" target="NO1AC8OuLP__qubKFZFA-47" edge="1">
          <mxGeometry relative="1" as="geometry" />
        </mxCell>
        <mxCell id="NO1AC8OuLP__qubKFZFA-71" value="&lt;pre style=&quot;background-color:#2b2b2b;color:#a9b7c6;font-family:&#39;JetBrains Mono&#39;,monospace;font-size:9.8pt;&quot;&gt;&lt;pre style=&quot;font-family: &amp;quot;JetBrains Mono&amp;quot;, monospace; font-size: 9.8pt;&quot;&gt;self.button_create_pages = customtkinter.CTkButton(&lt;br&gt;    &lt;span style=&quot;color:#aa4926;&quot;&gt;master&lt;/span&gt;=&lt;span style=&quot;color:#94558d;&quot;&gt;self&lt;/span&gt;.tabview_t.tab(&lt;span style=&quot;color:#6a8759;&quot;&gt;&quot;commands&quot;&lt;/span&gt;)&lt;span style=&quot;color:#cc7832;&quot;&gt;,&lt;br&gt;&lt;/span&gt;&lt;span style=&quot;color:#cc7832;&quot;&gt;    &lt;/span&gt;&lt;span style=&quot;color:#aa4926;&quot;&gt;text&lt;/span&gt;=&lt;span style=&quot;color:#6a8759;&quot;&gt;&#39;Split Selected PDF(s) into Pages&#39;&lt;/span&gt;&lt;span style=&quot;color:#cc7832;&quot;&gt;,&lt;br&gt;&lt;/span&gt;&lt;span style=&quot;color:#cc7832;&quot;&gt;    &lt;/span&gt;&lt;span style=&quot;color:#aa4926;&quot;&gt;command&lt;/span&gt;=&lt;span style=&quot;color:#cc7832;&quot;&gt;lambda&lt;/span&gt;: &lt;span style=&quot;color:#94558d;&quot;&gt;self&lt;/span&gt;.split_pdf_2_pages()&lt;br&gt;)&lt;br&gt;&lt;/pre&gt;&lt;/pre&gt;" style="rounded=0;whiteSpace=wrap;html=1;" parent="1" vertex="1">
          <mxGeometry x="220" y="-480" width="450" height="90" as="geometry" />
        </mxCell>
        <mxCell id="NO1AC8OuLP__qubKFZFA-72" value="&lt;pre style=&quot;background-color:#2b2b2b;color:#a9b7c6;font-family:&#39;JetBrains Mono&#39;,monospace;font-size:9.8pt;&quot;&gt;&lt;pre style=&quot;font-family: &amp;quot;JetBrains Mono&amp;quot;, monospace; font-size: 9.8pt;&quot;&gt;self.user_entry = customtkinter.CTkEntry(&lt;br&gt;    &lt;span style=&quot;color:#aa4926;&quot;&gt;master&lt;/span&gt;=&lt;span style=&quot;color:#94558d;&quot;&gt;self&lt;/span&gt;.tabview_t.tab(&lt;span style=&quot;color:#6a8759;&quot;&gt;&quot;commands&quot;&lt;/span&gt;)&lt;span style=&quot;color:#cc7832;&quot;&gt;,&lt;br&gt;&lt;/span&gt;&lt;span style=&quot;color:#cc7832;&quot;&gt;    &lt;/span&gt;&lt;span style=&quot;color:#aa4926;&quot;&gt;placeholder_text&lt;/span&gt;=&lt;span style=&quot;color:#6a8759;&quot;&gt;&quot;combo filename&quot;&lt;/span&gt;)&lt;br&gt;&lt;/pre&gt;&lt;/pre&gt;" style="rounded=0;whiteSpace=wrap;html=1;" parent="1" vertex="1">
          <mxGeometry x="220" y="-390" width="450" height="90" as="geometry" />
        </mxCell>
        <mxCell id="NO1AC8OuLP__qubKFZFA-73" value="&lt;pre style=&quot;background-color:#2b2b2b;color:#a9b7c6;font-family:&#39;JetBrains Mono&#39;,monospace;font-size:9.8pt;&quot;&gt;&lt;pre style=&quot;font-family: &amp;quot;JetBrains Mono&amp;quot;, monospace; font-size: 9.8pt;&quot;&gt;self.button_merge_pages = customtkinter.CTkButton(&lt;br&gt;    &lt;span style=&quot;color:#aa4926;&quot;&gt;master&lt;/span&gt;=&lt;span style=&quot;color:#94558d;&quot;&gt;self&lt;/span&gt;.tabview_t.tab(&lt;span style=&quot;color:#6a8759;&quot;&gt;&quot;commands&quot;&lt;/span&gt;)&lt;span style=&quot;color:#cc7832;&quot;&gt;,&lt;br&gt;&lt;/span&gt;&lt;span style=&quot;color:#cc7832;&quot;&gt;    &lt;/span&gt;&lt;span style=&quot;color:#aa4926;&quot;&gt;text&lt;/span&gt;=&lt;span style=&quot;color:#6a8759;&quot;&gt;&#39;Merge Pages&#39;&lt;/span&gt;&lt;span style=&quot;color:#cc7832;&quot;&gt;,&lt;br&gt;&lt;/span&gt;&lt;span style=&quot;color:#cc7832;&quot;&gt;    &lt;/span&gt;&lt;span style=&quot;color:#aa4926;&quot;&gt;command&lt;/span&gt;=&lt;span style=&quot;color:#94558d;&quot;&gt;self&lt;/span&gt;.merge_pages&lt;br&gt;)&lt;br&gt;&lt;/pre&gt;&lt;/pre&gt;" style="rounded=0;whiteSpace=wrap;html=1;" parent="1" vertex="1">
          <mxGeometry x="220" y="-300" width="450" height="90" as="geometry" />
        </mxCell>
        <mxCell id="NO1AC8OuLP__qubKFZFA-74" value="&lt;pre style=&quot;background-color:#2b2b2b;color:#a9b7c6;font-family:&#39;JetBrains Mono&#39;,monospace;font-size:9.8pt;&quot;&gt;&lt;pre style=&quot;font-family: &amp;quot;JetBrains Mono&amp;quot;, monospace; font-size: 9.8pt;&quot;&gt;self.tabview_files = customtkinter.CTkTabview(&lt;br&gt;    &lt;span style=&quot;color:#aa4926;&quot;&gt;master&lt;/span&gt;=&lt;span style=&quot;color:#94558d;&quot;&gt;self&lt;/span&gt;.tabview_t.tab(&lt;span style=&quot;color:#6a8759;&quot;&gt;&quot;commands&quot;&lt;/span&gt;)&lt;span style=&quot;color:#cc7832;&quot;&gt;,&lt;br&gt;&lt;/span&gt;&lt;span style=&quot;color:#cc7832;&quot;&gt;    &lt;/span&gt;&lt;span style=&quot;color:#aa4926;&quot;&gt;width&lt;/span&gt;=&lt;span style=&quot;color:#6897bb;&quot;&gt;5&lt;br&gt;&lt;/span&gt;)&lt;br&gt;&lt;/pre&gt;&lt;/pre&gt;" style="rounded=0;whiteSpace=wrap;html=1;" parent="1" vertex="1">
          <mxGeometry x="220" y="-190" width="450" height="90" as="geometry" />
        </mxCell>
        <mxCell id="NO1AC8OuLP__qubKFZFA-75" value="&lt;pre style=&quot;background-color:#2b2b2b;color:#a9b7c6;font-family:&#39;JetBrains Mono&#39;,monospace;font-size:9.8pt;&quot;&gt;&lt;pre style=&quot;font-family: &amp;quot;JetBrains Mono&amp;quot;, monospace; font-size: 9.8pt;&quot;&gt;self.tabview_files.add(&lt;span style=&quot;color:#6a8759;&quot;&gt;&quot;file listing&quot;&lt;/span&gt;)  &lt;span style=&quot;color:#808080;&quot;&gt;# add tab at the end&lt;br&gt;&lt;/span&gt;&lt;span style=&quot;color:#94558d;&quot;&gt;self&lt;/span&gt;.tabview_files.add(&lt;span style=&quot;color:#6a8759;&quot;&gt;&quot;page listing&quot;&lt;/span&gt;)  &lt;span style=&quot;color:#808080;&quot;&gt;# add tab at the end&lt;br&gt;&lt;/span&gt;&lt;span style=&quot;color:#94558d;&quot;&gt;self&lt;/span&gt;.tabview_files.add(&lt;span style=&quot;color:#6a8759;&quot;&gt;&quot;combo listing&quot;&lt;/span&gt;)  &lt;span style=&quot;color:#808080;&quot;&gt;# add tab at the end&lt;br&gt;&lt;/span&gt;&lt;span style=&quot;color:#94558d;&quot;&gt;self&lt;/span&gt;.tabview_files.add(&lt;span style=&quot;color:#6a8759;&quot;&gt;&quot;icon view&quot;&lt;/span&gt;)  &lt;span style=&quot;color:#808080;&quot;&gt;# add tab at the end&lt;/span&gt;&lt;/pre&gt;&lt;/pre&gt;" style="rounded=0;whiteSpace=wrap;html=1;" parent="1" vertex="1">
          <mxGeometry x="180" y="-100" width="490" height="90" as="geometry" />
        </mxCell>
        <mxCell id="NO1AC8OuLP__qubKFZFA-76" value="&lt;pre style=&quot;background-color:#2b2b2b;color:#a9b7c6;font-family:&#39;JetBrains Mono&#39;,monospace;font-size:9.8pt;&quot;&gt;&lt;pre style=&quot;font-family: &amp;quot;JetBrains Mono&amp;quot;, monospace; font-size: 9.8pt;&quot;&gt;self.file_list_scrollable_frame = customtkinter.CTkScrollableFrame(&lt;br&gt;    &lt;span style=&quot;color:#aa4926;&quot;&gt;master&lt;/span&gt;=&lt;span style=&quot;color:#94558d;&quot;&gt;self&lt;/span&gt;.tabview_files.tab(&lt;span style=&quot;color:#6a8759;&quot;&gt;&quot;file listing&quot;&lt;/span&gt;)&lt;span style=&quot;color:#cc7832;&quot;&gt;,&lt;br&gt;&lt;/span&gt;&lt;span style=&quot;color:#cc7832;&quot;&gt;    &lt;/span&gt;&lt;span style=&quot;color:#aa4926;&quot;&gt;label_text&lt;/span&gt;=&lt;span style=&quot;color:#6a8759;&quot;&gt;&quot;PDF File Listing&quot;&lt;/span&gt;&lt;span style=&quot;color:#cc7832;&quot;&gt;,&lt;br&gt;&lt;/span&gt;&lt;span style=&quot;color:#cc7832;&quot;&gt;    &lt;/span&gt;&lt;span style=&quot;color:#aa4926;&quot;&gt;width&lt;/span&gt;=CMD_FILE_LISTING_WIDTH&lt;br&gt;&lt;/pre&gt;&lt;/pre&gt;" style="rounded=0;whiteSpace=wrap;html=1;" parent="1" vertex="1">
          <mxGeometry x="110" y="-10" width="560" height="90" as="geometry" />
        </mxCell>
        <mxCell id="NO1AC8OuLP__qubKFZFA-77" value="&lt;pre style=&quot;background-color:#2b2b2b;color:#a9b7c6;font-family:&#39;JetBrains Mono&#39;,monospace;font-size:9.8pt;&quot;&gt;&lt;pre style=&quot;font-family: &amp;quot;JetBrains Mono&amp;quot;, monospace; font-size: 9.8pt;&quot;&gt;s_lst = self.display_pdf_listing()&lt;br&gt;&lt;/pre&gt;&lt;/pre&gt;" style="rounded=0;whiteSpace=wrap;html=1;" parent="1" vertex="1">
          <mxGeometry x="110" y="80" width="560" height="40" as="geometry" />
        </mxCell>
        <mxCell id="NO1AC8OuLP__qubKFZFA-78" value="&lt;pre style=&quot;background-color:#2b2b2b;color:#a9b7c6;font-family:&#39;JetBrains Mono&#39;,monospace;font-size:9.8pt;&quot;&gt;&lt;pre style=&quot;font-family: &amp;quot;JetBrains Mono&amp;quot;, monospace; font-size: 9.8pt;&quot;&gt;self.page_listing_frame = customtkinter.CTkScrollableFrame(&lt;br&gt;    &lt;span style=&quot;color:#aa4926;&quot;&gt;master&lt;/span&gt;=&lt;span style=&quot;color:#94558d;&quot;&gt;self&lt;/span&gt;.tabview_files.tab(&lt;span style=&quot;color:#6a8759;&quot;&gt;&quot;page listing&quot;&lt;/span&gt;)&lt;span style=&quot;color:#cc7832;&quot;&gt;,&lt;br&gt;&lt;/span&gt;&lt;span style=&quot;color:#cc7832;&quot;&gt;    &lt;/span&gt;&lt;span style=&quot;color:#aa4926;&quot;&gt;label_text&lt;/span&gt;=&lt;span style=&quot;color:#6a8759;&quot;&gt;&quot;PDF Pages&quot;&lt;/span&gt;&lt;span style=&quot;color:#cc7832;&quot;&gt;,&lt;br&gt;&lt;/span&gt;&lt;span style=&quot;color:#cc7832;&quot;&gt;    &lt;/span&gt;&lt;span style=&quot;color:#aa4926;&quot;&gt;width&lt;/span&gt;=CMD_FILE_LISTING_WIDTH&lt;br&gt;&lt;/pre&gt;&lt;/pre&gt;" style="rounded=0;whiteSpace=wrap;html=1;" parent="1" vertex="1">
          <mxGeometry x="110" y="120" width="560" height="100" as="geometry" />
        </mxCell>
        <mxCell id="NO1AC8OuLP__qubKFZFA-79" value="&lt;pre style=&quot;background-color:#2b2b2b;color:#a9b7c6;font-family:&#39;JetBrains Mono&#39;,monospace;font-size:9.8pt;&quot;&gt;&lt;pre style=&quot;font-family: &amp;quot;JetBrains Mono&amp;quot;, monospace; font-size: 9.8pt;&quot;&gt;self.combo_listing_frame = customtkinter.CTkScrollableFrame(&lt;br&gt;    &lt;span style=&quot;color:#aa4926;&quot;&gt;master&lt;/span&gt;=&lt;span style=&quot;color:#94558d;&quot;&gt;self&lt;/span&gt;.tabview_files.tab(&lt;span style=&quot;color:#6a8759;&quot;&gt;&quot;combo listing&quot;&lt;/span&gt;)&lt;span style=&quot;color:#cc7832;&quot;&gt;,&lt;br&gt;&lt;/span&gt;&lt;span style=&quot;color:#cc7832;&quot;&gt;    &lt;/span&gt;&lt;span style=&quot;color:#aa4926;&quot;&gt;label_text&lt;/span&gt;=&lt;span style=&quot;color:#6a8759;&quot;&gt;&quot;Combo PDF&quot;&lt;/span&gt;&lt;span style=&quot;color:#cc7832;&quot;&gt;,&lt;br&gt;&lt;/span&gt;&lt;span style=&quot;color:#cc7832;&quot;&gt;    &lt;/span&gt;&lt;span style=&quot;color:#aa4926;&quot;&gt;width&lt;/span&gt;=CMD_FILE_LISTING_WIDTH&lt;br&gt;)&lt;br&gt;&lt;/pre&gt;&lt;/pre&gt;" style="rounded=0;whiteSpace=wrap;html=1;" parent="1" vertex="1">
          <mxGeometry x="110" y="220" width="560" height="100" as="geometry" />
        </mxCell>
        <mxCell id="NO1AC8OuLP__qubKFZFA-80" value="&lt;pre style=&quot;background-color:#2b2b2b;color:#a9b7c6;font-family:&#39;JetBrains Mono&#39;,monospace;font-size:9.8pt;&quot;&gt;&lt;pre style=&quot;font-family: &amp;quot;JetBrains Mono&amp;quot;, monospace; font-size: 9.8pt;&quot;&gt;self.icon_listing_frame = customtkinter.CTkScrollableFrame(&lt;br&gt;    &lt;span style=&quot;color:#aa4926;&quot;&gt;master&lt;/span&gt;=&lt;span style=&quot;color:#94558d;&quot;&gt;self&lt;/span&gt;.tabview_files.tab(&lt;span style=&quot;color:#6a8759;&quot;&gt;&quot;icon view&quot;&lt;/span&gt;)&lt;span style=&quot;color:#cc7832;&quot;&gt;,&lt;br&gt;&lt;/span&gt;&lt;span style=&quot;color:#cc7832;&quot;&gt;    &lt;/span&gt;&lt;span style=&quot;color:#aa4926;&quot;&gt;label_text&lt;/span&gt;=&lt;span style=&quot;color:#6a8759;&quot;&gt;&quot;Icon View&quot;&lt;/span&gt;&lt;span style=&quot;color:#cc7832;&quot;&gt;,&lt;br&gt;&lt;/span&gt;&lt;span style=&quot;color:#cc7832;&quot;&gt;    &lt;/span&gt;&lt;span style=&quot;color:#aa4926;&quot;&gt;width&lt;/span&gt;=CMD_FILE_LISTING_WIDTH&lt;br&gt;)&lt;br&gt;&lt;/pre&gt;&lt;/pre&gt;" style="rounded=0;whiteSpace=wrap;html=1;" parent="1" vertex="1">
          <mxGeometry x="110" y="320" width="560" height="100" as="geometry" />
        </mxCell>
        <mxCell id="NO1AC8OuLP__qubKFZFA-100" style="edgeStyle=orthogonalEdgeStyle;rounded=0;orthogonalLoop=1;jettySize=auto;html=1;" parent="1" source="NO1AC8OuLP__qubKFZFA-81" target="NO1AC8OuLP__qubKFZFA-56" edge="1">
          <mxGeometry relative="1" as="geometry" />
        </mxCell>
        <mxCell id="NO1AC8OuLP__qubKFZFA-81" value="&lt;pre style=&quot;background-color:#2b2b2b;color:#a9b7c6;font-family:&#39;JetBrains Mono&#39;,monospace;font-size:9.8pt;&quot;&gt;&lt;pre style=&quot;font-family: &amp;quot;JetBrains Mono&amp;quot;, monospace; font-size: 9.8pt;&quot;&gt;i_lst = self.get_combo_listing()&lt;br&gt;&lt;/pre&gt;&lt;/pre&gt;" style="rounded=0;whiteSpace=wrap;html=1;" parent="1" vertex="1">
          <mxGeometry x="110" y="420" width="560" height="100" as="geometry" />
        </mxCell>
        <mxCell id="NO1AC8OuLP__qubKFZFA-82" value="&lt;pre style=&quot;background-color:#2b2b2b;color:#a9b7c6;font-family:&#39;JetBrains Mono&#39;,monospace;font-size:9.8pt;&quot;&gt;&lt;pre style=&quot;font-family: &amp;quot;JetBrains Mono&amp;quot;, monospace; font-size: 9.8pt;&quot;&gt;&lt;pre style=&quot;font-size: 9.8pt; font-family: &amp;quot;JetBrains Mono&amp;quot;, monospace;&quot;&gt;&lt;pre style=&quot;font-family: &amp;quot;JetBrains Mono&amp;quot;, monospace; font-size: 9.8pt;&quot;&gt;self.u_tabview_files = customtkinter.CTkTabview(&lt;br&gt;    &lt;span style=&quot;color:#aa4926;&quot;&gt;master&lt;/span&gt;=&lt;span style=&quot;color:#94558d;&quot;&gt;self&lt;/span&gt;.tabview_t.tab(&lt;span style=&quot;color:#6a8759;&quot;&gt;&quot;user flow&quot;&lt;/span&gt;)&lt;span style=&quot;color:#cc7832;&quot;&gt;,&lt;/span&gt;&lt;br&gt;&lt;span style=&quot;color:#94558d;&quot;&gt;self&lt;/span&gt;.u_tabview_files.add(&lt;span style=&quot;color:#6a8759;&quot;&gt;&quot;PDF Infiles Listing&quot;&lt;/span&gt;)  &lt;span style=&quot;color:#808080;&quot;&gt;# add tab at the end&lt;br&gt;&lt;/span&gt;&lt;span style=&quot;color:#94558d;&quot;&gt;self&lt;/span&gt;.u_tabview_files.add(&lt;span style=&quot;color:#6a8759;&quot;&gt;&quot;PDF Combo TST&quot;&lt;/span&gt;)  &lt;span style=&quot;color:#808080;&quot;&gt;# add tab at the end&lt;br&gt;&lt;/span&gt;&lt;span style=&quot;color:#94558d;&quot;&gt;self&lt;/span&gt;.u_tabview_files.add(&lt;span style=&quot;color:#6a8759;&quot;&gt;&quot;TST icon view&quot;&lt;/span&gt;)  &lt;span style=&quot;color:#808080;&quot;&gt;# add tab at the end&lt;br&gt;&lt;/span&gt;&lt;span style=&quot;color:#94558d;&quot;&gt;self&lt;/span&gt;.u_tabview_files.set(&lt;span style=&quot;color:#6a8759;&quot;&gt;&quot;PDF Infiles Listing&quot;&lt;/span&gt;)  &lt;span style=&quot;color:#808080;&quot;&gt;# set currently visible tab&lt;/span&gt;&lt;/pre&gt;&lt;/pre&gt;&lt;/pre&gt;&lt;/pre&gt;" style="rounded=0;whiteSpace=wrap;html=1;" parent="1" vertex="1">
          <mxGeometry x="50" y="525" width="620" height="145" as="geometry" />
        </mxCell>
        <mxCell id="NO1AC8OuLP__qubKFZFA-83" value="&lt;pre style=&quot;background-color:#2b2b2b;color:#a9b7c6;font-family:&#39;JetBrains Mono&#39;,monospace;font-size:9.8pt;&quot;&gt;&lt;pre style=&quot;font-family: &amp;quot;JetBrains Mono&amp;quot;, monospace; font-size: 9.8pt;&quot;&gt;&lt;pre style=&quot;font-size: 9.8pt; font-family: &amp;quot;JetBrains Mono&amp;quot;, monospace;&quot;&gt;&lt;pre style=&quot;font-family: &amp;quot;JetBrains Mono&amp;quot;, monospace; font-size: 9.8pt;&quot;&gt;self.combo_infiles_listing_frame = customtkinter.CTkScrollableFrame(&lt;br&gt;    &lt;span style=&quot;color:#aa4926;&quot;&gt;master&lt;/span&gt;=&lt;span style=&quot;color:#94558d;&quot;&gt;self&lt;/span&gt;.u_tabview_files.tab(&lt;span style=&quot;color:#6a8759;&quot;&gt;&quot;PDF Infiles Listing&quot;&lt;/span&gt;)&lt;span style=&quot;color:#cc7832;&quot;&gt;,&lt;br&gt;&lt;/span&gt;&lt;span style=&quot;color:#cc7832;&quot;&gt;    &lt;/span&gt;&lt;span style=&quot;color:#aa4926;&quot;&gt;label_text&lt;/span&gt;=&lt;span style=&quot;color:#6a8759;&quot;&gt;&quot;COMBO Page Listing&quot;&lt;/span&gt;&lt;span style=&quot;color:#cc7832;&quot;&gt;,&lt;/span&gt;&lt;/pre&gt;&lt;/pre&gt;&lt;/pre&gt;&lt;/pre&gt;" style="rounded=0;whiteSpace=wrap;html=1;" parent="1" vertex="1">
          <mxGeometry x="50" y="670" width="620" height="90" as="geometry" />
        </mxCell>
        <mxCell id="NO1AC8OuLP__qubKFZFA-101" style="edgeStyle=orthogonalEdgeStyle;rounded=0;orthogonalLoop=1;jettySize=auto;html=1;" parent="1" source="NO1AC8OuLP__qubKFZFA-84" target="NO1AC8OuLP__qubKFZFA-58" edge="1">
          <mxGeometry relative="1" as="geometry" />
        </mxCell>
        <mxCell id="NO1AC8OuLP__qubKFZFA-84" value="&lt;pre style=&quot;background-color:#2b2b2b;color:#a9b7c6;font-family:&#39;JetBrains Mono&#39;,monospace;font-size:9.8pt;&quot;&gt;&lt;pre style=&quot;font-family: &amp;quot;JetBrains Mono&amp;quot;, monospace; font-size: 9.8pt;&quot;&gt;&lt;pre style=&quot;font-size: 9.8pt; font-family: &amp;quot;JetBrains Mono&amp;quot;, monospace;&quot;&gt;&lt;pre style=&quot;font-family: &amp;quot;JetBrains Mono&amp;quot;, monospace; font-size: 9.8pt;&quot;&gt;listing = self.get_combo_combo_pages_listing()&lt;br&gt;&lt;/pre&gt;&lt;/pre&gt;&lt;/pre&gt;&lt;/pre&gt;" style="rounded=0;whiteSpace=wrap;html=1;" parent="1" vertex="1">
          <mxGeometry x="50" y="760" width="620" height="90" as="geometry" />
        </mxCell>
        <mxCell id="NO1AC8OuLP__qubKFZFA-104" style="edgeStyle=orthogonalEdgeStyle;rounded=0;orthogonalLoop=1;jettySize=auto;html=1;" parent="1" source="NO1AC8OuLP__qubKFZFA-85" target="NO1AC8OuLP__qubKFZFA-34" edge="1">
          <mxGeometry relative="1" as="geometry" />
        </mxCell>
        <mxCell id="NO1AC8OuLP__qubKFZFA-85" value="&lt;pre style=&quot;background-color:#2b2b2b;color:#a9b7c6;font-family:&#39;JetBrains Mono&#39;,monospace;font-size:9.8pt;&quot;&gt;&lt;pre style=&quot;font-family: &amp;quot;JetBrains Mono&amp;quot;, monospace; font-size: 9.8pt;&quot;&gt;&lt;pre style=&quot;font-size: 9.8pt; font-family: &amp;quot;JetBrains Mono&amp;quot;, monospace;&quot;&gt;&lt;pre style=&quot;font-family: &amp;quot;JetBrains Mono&amp;quot;, monospace; font-size: 9.8pt;&quot;&gt;self.test_combo_combo_listing(&lt;br&gt;    listing&lt;span style=&quot;color:#cc7832;&quot;&gt;,&lt;br&gt;&lt;/span&gt;&lt;span style=&quot;color:#cc7832;&quot;&gt;    &lt;/span&gt;COMBO_INFILES_DIR&lt;span style=&quot;color:#cc7832;&quot;&gt;,&lt;br&gt;&lt;/span&gt;&lt;span style=&quot;color:#cc7832;&quot;&gt;    &lt;/span&gt;COMBO_IMAGES_DIR&lt;span style=&quot;color:#cc7832;&quot;&gt;,&lt;br&gt;&lt;/span&gt;&lt;span style=&quot;color:#cc7832;&quot;&gt;    &lt;/span&gt;&lt;span style=&quot;color:#94558d;&quot;&gt;self&lt;/span&gt;.combo_infiles_listing_frame)&lt;/pre&gt;&lt;/pre&gt;&lt;/pre&gt;&lt;/pre&gt;" style="rounded=0;whiteSpace=wrap;html=1;" parent="1" vertex="1">
          <mxGeometry x="50" y="850" width="620" height="100" as="geometry" />
        </mxCell>
        <mxCell id="NO1AC8OuLP__qubKFZFA-86" value="&lt;pre style=&quot;background-color:#2b2b2b;color:#a9b7c6;font-family:&#39;JetBrains Mono&#39;,monospace;font-size:9.8pt;&quot;&gt;&lt;pre style=&quot;font-family: &amp;quot;JetBrains Mono&amp;quot;, monospace; font-size: 9.8pt;&quot;&gt;&lt;pre style=&quot;font-size: 9.8pt; font-family: &amp;quot;JetBrains Mono&amp;quot;, monospace;&quot;&gt;&lt;pre style=&quot;font-family: &amp;quot;JetBrains Mono&amp;quot;, monospace; font-size: 9.8pt;&quot;&gt;self.disp_combo_files_frame = customtkinter.CTkScrollableFrame(&lt;br&gt;    &lt;span style=&quot;color:#aa4926;&quot;&gt;master&lt;/span&gt;=&lt;span style=&quot;color:#94558d;&quot;&gt;self&lt;/span&gt;.u_tabview_files.tab(&lt;span style=&quot;color:#6a8759;&quot;&gt;&quot;PDF Combo TST&quot;&lt;/span&gt;)&lt;span style=&quot;color:#cc7832;&quot;&gt;,&lt;br&gt;&lt;/span&gt;&lt;span style=&quot;color:#cc7832;&quot;&gt;    &lt;/span&gt;&lt;span style=&quot;color:#aa4926;&quot;&gt;label_text&lt;/span&gt;=&lt;span style=&quot;color:#6a8759;&quot;&gt;&quot;COMBO Re-Order&quot;&lt;/span&gt;&lt;span style=&quot;color:#cc7832;&quot;&gt;,&lt;br&gt;&lt;/span&gt;&lt;span style=&quot;color:#cc7832;&quot;&gt;    &lt;/span&gt;&lt;span style=&quot;color:#aa4926;&quot;&gt;width&lt;/span&gt;=U_WIDTH - &lt;span style=&quot;color:#6897bb;&quot;&gt;200&lt;/span&gt;&lt;span style=&quot;color:#cc7832;&quot;&gt;,&lt;br&gt;&lt;/span&gt;&lt;span style=&quot;color:#cc7832;&quot;&gt;    &lt;/span&gt;&lt;span style=&quot;color:#aa4926;&quot;&gt;height&lt;/span&gt;=U_HEIGHT&lt;br&gt;)&lt;br&gt;&lt;/pre&gt;&lt;/pre&gt;&lt;/pre&gt;&lt;/pre&gt;" style="rounded=0;whiteSpace=wrap;html=1;" parent="1" vertex="1">
          <mxGeometry x="50" y="950" width="620" height="120" as="geometry" />
        </mxCell>
        <mxCell id="NO1AC8OuLP__qubKFZFA-108" style="edgeStyle=orthogonalEdgeStyle;rounded=0;orthogonalLoop=1;jettySize=auto;html=1;" parent="1" source="NO1AC8OuLP__qubKFZFA-87" target="NO1AC8OuLP__qubKFZFA-105" edge="1">
          <mxGeometry relative="1" as="geometry" />
        </mxCell>
        <mxCell id="NO1AC8OuLP__qubKFZFA-87" value="&lt;pre style=&quot;background-color:#2b2b2b;color:#a9b7c6;font-family:&#39;JetBrains Mono&#39;,monospace;font-size:9.8pt;&quot;&gt;&lt;pre style=&quot;font-family: &amp;quot;JetBrains Mono&amp;quot;, monospace; font-size: 9.8pt;&quot;&gt;&lt;pre style=&quot;font-size: 9.8pt; font-family: &amp;quot;JetBrains Mono&amp;quot;, monospace;&quot;&gt;&lt;pre style=&quot;font-family: &amp;quot;JetBrains Mono&amp;quot;, monospace; font-size: 9.8pt;&quot;&gt;&lt;br&gt;listing = self.get_combo_combo_pages_listing()&lt;br&gt;&lt;span style=&quot;color:#94558d;&quot;&gt;self&lt;/span&gt;.refresh_combo_combo_listing(listing)&lt;br&gt;&lt;span style=&quot;color:#94558d;&quot;&gt;&lt;br&gt;&lt;/span&gt;&lt;/pre&gt;&lt;pre style=&quot;font-family: &amp;quot;JetBrains Mono&amp;quot;, monospace; font-size: 9.8pt;&quot;&gt;&lt;div style=&quot;text-align: left;&quot;&gt;&lt;span style=&quot;font-size: 9.8pt; white-space: normal; color: rgb(148, 85, 141);&quot;&gt;self&lt;/span&gt;&lt;span style=&quot;font-size: 9.8pt; white-space: normal;&quot;&gt;.test_combo_combo_listing(&lt;/span&gt;&lt;/div&gt;&lt;div style=&quot;text-align: left;&quot;&gt;&lt;span style=&quot;font-size: 9.8pt; white-space: normal;&quot;&gt;&amp;nbsp; &amp;nbsp; &lt;span style=&quot;white-space: pre;&quot;&gt;&#x9;&lt;/span&gt;listing&lt;/span&gt;&lt;span style=&quot;font-size: 9.8pt; white-space: normal; color: rgb(204, 120, 50);&quot;&gt;,&lt;/span&gt;&lt;/div&gt;&lt;span style=&quot;color:#cc7832;&quot;&gt;&lt;div style=&quot;text-align: left;&quot;&gt;&lt;span style=&quot;font-size: 9.8pt; white-space: normal;&quot;&gt;    &lt;/span&gt;&lt;span style=&quot;font-size: 9.8pt; color: rgb(169, 183, 198); white-space: normal;&quot;&gt;&lt;span style=&quot;white-space: pre;&quot;&gt;&#x9;&lt;/span&gt;COMBO_INFILES_DIR&lt;/span&gt;&lt;span style=&quot;font-size: 9.8pt; white-space: normal;&quot;&gt;,&lt;/span&gt;&lt;/div&gt;&lt;/span&gt;&lt;span style=&quot;color:#cc7832;&quot;&gt;&lt;div style=&quot;text-align: left;&quot;&gt;&lt;span style=&quot;font-size: 9.8pt; white-space: normal;&quot;&gt;    &lt;/span&gt;&lt;span style=&quot;font-size: 9.8pt; color: rgb(169, 183, 198); white-space: normal;&quot;&gt;&lt;span style=&quot;white-space: pre;&quot;&gt;&#x9;&lt;/span&gt;COMBO_IMAGES_DIR&lt;/span&gt;&lt;span style=&quot;font-size: 9.8pt; white-space: normal;&quot;&gt;,&lt;/span&gt;&lt;/div&gt;&lt;/span&gt;&lt;span style=&quot;color:#cc7832;&quot;&gt;&lt;div style=&quot;text-align: left;&quot;&gt;&lt;span style=&quot;font-size: 9.8pt; white-space: normal;&quot;&gt;    &lt;/span&gt;&lt;span style=&quot;font-size: 9.8pt; white-space: normal; color: rgb(148, 85, 141);&quot;&gt;&lt;span style=&quot;white-space: pre;&quot;&gt;&#x9;&lt;/span&gt;self&lt;/span&gt;&lt;span style=&quot;font-size: 9.8pt; color: rgb(169, 183, 198); white-space: normal;&quot;&gt;.disp_combo_files_frame)&lt;/span&gt;&lt;/div&gt;&lt;/span&gt;&lt;/pre&gt;&lt;/pre&gt;&lt;/pre&gt;&lt;/pre&gt;" style="rounded=0;whiteSpace=wrap;html=1;" parent="1" vertex="1">
          <mxGeometry x="50" y="1070" width="620" height="180" as="geometry" />
        </mxCell>
        <mxCell id="NO1AC8OuLP__qubKFZFA-110" style="edgeStyle=orthogonalEdgeStyle;rounded=0;orthogonalLoop=1;jettySize=auto;html=1;" parent="1" source="NO1AC8OuLP__qubKFZFA-88" target="NO1AC8OuLP__qubKFZFA-43" edge="1">
          <mxGeometry relative="1" as="geometry" />
        </mxCell>
        <mxCell id="NO1AC8OuLP__qubKFZFA-88" value="&lt;pre style=&quot;background-color:#2b2b2b;color:#a9b7c6;font-family:&#39;JetBrains Mono&#39;,monospace;font-size:9.8pt;&quot;&gt;&lt;pre style=&quot;font-family: &amp;quot;JetBrains Mono&amp;quot;, monospace; font-size: 9.8pt;&quot;&gt;&lt;pre style=&quot;font-size: 9.8pt; font-family: &amp;quot;JetBrains Mono&amp;quot;, monospace;&quot;&gt;&lt;pre style=&quot;font-family: &amp;quot;JetBrains Mono&amp;quot;, monospace; font-size: 9.8pt;&quot;&gt;&lt;/pre&gt;&lt;pre style=&quot;font-family: &amp;quot;JetBrains Mono&amp;quot;, monospace; font-size: 9.8pt;&quot;&gt;self.combo_split_pages_btn = customtkinter.CTkButton(&lt;br&gt;    &lt;span style=&quot;color:#aa4926;&quot;&gt;master&lt;/span&gt;=&lt;span style=&quot;color:#94558d;&quot;&gt;self&lt;/span&gt;.u_tabview_files.tab(&lt;span style=&quot;color:#6a8759;&quot;&gt;&quot;PDF Combo TST&quot;&lt;/span&gt;)&lt;span style=&quot;color:#cc7832;&quot;&gt;,&lt;br&gt;&lt;/span&gt;&lt;span style=&quot;color:#cc7832;&quot;&gt;    &lt;/span&gt;&lt;span style=&quot;color:#aa4926;&quot;&gt;text&lt;/span&gt;=&lt;span style=&quot;color:#6a8759;&quot;&gt;&#39;Split PDF&#39;&lt;/span&gt;&lt;span style=&quot;color:#cc7832;&quot;&gt;,&lt;br&gt;&lt;/span&gt;&lt;span style=&quot;color:#cc7832;&quot;&gt;    &lt;/span&gt;&lt;span style=&quot;color:#aa4926;&quot;&gt;command&lt;/span&gt;=&lt;span style=&quot;color:#94558d;&quot;&gt;self&lt;/span&gt;.split_combo_combo_into_pages&lt;br&gt;&lt;/pre&gt;&lt;/pre&gt;&lt;/pre&gt;&lt;/pre&gt;" style="rounded=0;whiteSpace=wrap;html=1;" parent="1" vertex="1">
          <mxGeometry x="50" y="1250" width="620" height="180" as="geometry" />
        </mxCell>
        <mxCell id="NO1AC8OuLP__qubKFZFA-89" value="&lt;pre style=&quot;background-color:#2b2b2b;color:#a9b7c6;font-family:&#39;JetBrains Mono&#39;,monospace;font-size:9.8pt;&quot;&gt;&lt;pre style=&quot;font-family: &amp;quot;JetBrains Mono&amp;quot;, monospace; font-size: 9.8pt;&quot;&gt;&lt;pre style=&quot;font-size: 9.8pt; font-family: &amp;quot;JetBrains Mono&amp;quot;, monospace;&quot;&gt;&lt;pre style=&quot;font-family: &amp;quot;JetBrains Mono&amp;quot;, monospace; font-size: 9.8pt;&quot;&gt;&lt;/pre&gt;&lt;pre style=&quot;font-family: &amp;quot;JetBrains Mono&amp;quot;, monospace; font-size: 9.8pt;&quot;&gt;self.combo_infiles_listing_frame = customtkinter.CTkScrollableFrame(&lt;br&gt;    &lt;span style=&quot;color:#aa4926;&quot;&gt;master&lt;/span&gt;=&lt;span style=&quot;color:#94558d;&quot;&gt;self&lt;/span&gt;.u_tabview_files.tab(&lt;span style=&quot;color:#6a8759;&quot;&gt;&quot;PDF Infiles Listing&quot;&lt;/span&gt;)&lt;span style=&quot;color:#cc7832;&quot;&gt;,&lt;br&gt;&lt;/span&gt;&lt;span style=&quot;color:#cc7832;&quot;&gt;    &lt;/span&gt;&lt;span style=&quot;color:#aa4926;&quot;&gt;label_text&lt;/span&gt;=&lt;span style=&quot;color:#6a8759;&quot;&gt;&quot;COMBO Page Listing&quot;&lt;/span&gt;&lt;span style=&quot;color:#cc7832;&quot;&gt;,&lt;br&gt;&lt;/span&gt;&lt;span style=&quot;color:#cc7832;&quot;&gt;    &lt;/span&gt;&lt;span style=&quot;color:#aa4926;&quot;&gt;width&lt;/span&gt;=U_WIDTH&lt;span style=&quot;color:#cc7832;&quot;&gt;,&lt;br&gt;&lt;/span&gt;&lt;span style=&quot;color:#cc7832;&quot;&gt;    &lt;/span&gt;&lt;span style=&quot;color:#aa4926;&quot;&gt;height&lt;/span&gt;=U_HEIGHT&lt;br&gt;)&lt;br&gt;&lt;/pre&gt;&lt;/pre&gt;&lt;/pre&gt;&lt;/pre&gt;" style="rounded=0;whiteSpace=wrap;html=1;" parent="1" vertex="1">
          <mxGeometry x="50" y="1430" width="620" height="180" as="geometry" />
        </mxCell>
        <mxCell id="NO1AC8OuLP__qubKFZFA-111" style="edgeStyle=orthogonalEdgeStyle;rounded=0;orthogonalLoop=1;jettySize=auto;html=1;" parent="1" source="NO1AC8OuLP__qubKFZFA-90" target="NO1AC8OuLP__qubKFZFA-57" edge="1">
          <mxGeometry relative="1" as="geometry" />
        </mxCell>
        <mxCell id="NO1AC8OuLP__qubKFZFA-90" value="&lt;pre style=&quot;background-color:#2b2b2b;color:#a9b7c6;font-family:&#39;JetBrains Mono&#39;,monospace;font-size:9.8pt;&quot;&gt;&lt;pre style=&quot;font-family: &amp;quot;JetBrains Mono&amp;quot;, monospace; font-size: 9.8pt;&quot;&gt;&lt;pre style=&quot;font-size: 9.8pt; font-family: &amp;quot;JetBrains Mono&amp;quot;, monospace;&quot;&gt;&lt;pre style=&quot;font-family: &amp;quot;JetBrains Mono&amp;quot;, monospace; font-size: 9.8pt;&quot;&gt;&lt;/pre&gt;&lt;pre style=&quot;font-family: &amp;quot;JetBrains Mono&amp;quot;, monospace; font-size: 9.8pt;&quot;&gt;listing = self.get_combo_pages_listing()&lt;br&gt;&lt;/pre&gt;&lt;/pre&gt;&lt;/pre&gt;&lt;/pre&gt;" style="rounded=0;whiteSpace=wrap;html=1;" parent="1" vertex="1">
          <mxGeometry x="50" y="1610" width="620" height="180" as="geometry" />
        </mxCell>
        <mxCell id="NO1AC8OuLP__qubKFZFA-91" value="&lt;pre style=&quot;background-color:#2b2b2b;color:#a9b7c6;font-family:&#39;JetBrains Mono&#39;,monospace;font-size:9.8pt;&quot;&gt;&lt;pre style=&quot;font-family: &amp;quot;JetBrains Mono&amp;quot;, monospace; font-size: 9.8pt;&quot;&gt;&lt;pre style=&quot;font-size: 9.8pt; font-family: &amp;quot;JetBrains Mono&amp;quot;, monospace;&quot;&gt;&lt;pre style=&quot;font-family: &amp;quot;JetBrains Mono&amp;quot;, monospace; font-size: 9.8pt;&quot;&gt;&lt;/pre&gt;&lt;pre style=&quot;font-family: &amp;quot;JetBrains Mono&amp;quot;, monospace; font-size: 9.8pt;&quot;&gt;self.disp_combo_files_frame = customtkinter.CTkScrollableFrame(&lt;br&gt;    &lt;span style=&quot;color:#aa4926;&quot;&gt;master&lt;/span&gt;=&lt;span style=&quot;color:#94558d;&quot;&gt;self&lt;/span&gt;.u_tabview_files.tab(&lt;span style=&quot;color:#6a8759;&quot;&gt;&quot;PDF Combo TST&quot;&lt;/span&gt;)&lt;span style=&quot;color:#cc7832;&quot;&gt;,&lt;br&gt;&lt;/span&gt;&lt;span style=&quot;color:#cc7832;&quot;&gt;    &lt;/span&gt;&lt;span style=&quot;color:#aa4926;&quot;&gt;label_text&lt;/span&gt;=&lt;span style=&quot;color:#6a8759;&quot;&gt;&quot;COMBO Re-Order&quot;&lt;/span&gt;&lt;span style=&quot;color:#cc7832;&quot;&gt;,&lt;/span&gt;&lt;br&gt;&lt;/pre&gt;&lt;/pre&gt;&lt;/pre&gt;&lt;/pre&gt;" style="rounded=0;whiteSpace=wrap;html=1;" parent="1" vertex="1">
          <mxGeometry x="50" y="1790" width="620" height="180" as="geometry" />
        </mxCell>
        <mxCell id="NO1AC8OuLP__qubKFZFA-112" style="edgeStyle=orthogonalEdgeStyle;rounded=0;orthogonalLoop=1;jettySize=auto;html=1;" parent="1" source="NO1AC8OuLP__qubKFZFA-92" target="NO1AC8OuLP__qubKFZFA-106" edge="1">
          <mxGeometry relative="1" as="geometry" />
        </mxCell>
        <mxCell id="NO1AC8OuLP__qubKFZFA-92" value="&lt;pre style=&quot;background-color:#2b2b2b;color:#a9b7c6;font-family:&#39;JetBrains Mono&#39;,monospace;font-size:9.8pt;&quot;&gt;&lt;pre style=&quot;font-family: &amp;quot;JetBrains Mono&amp;quot;, monospace; font-size: 9.8pt;&quot;&gt;&lt;pre style=&quot;font-size: 9.8pt; font-family: &amp;quot;JetBrains Mono&amp;quot;, monospace;&quot;&gt;&lt;pre style=&quot;font-family: &amp;quot;JetBrains Mono&amp;quot;, monospace; font-size: 9.8pt;&quot;&gt;&lt;/pre&gt;&lt;pre style=&quot;font-family: &amp;quot;JetBrains Mono&amp;quot;, monospace; font-size: 9.8pt;&quot;&gt;self.test_combo_combo_listing(&lt;br&gt;    listing&lt;span style=&quot;color:#cc7832;&quot;&gt;, &lt;br&gt;&lt;/span&gt;&lt;span style=&quot;color:#cc7832;&quot;&gt;    &lt;/span&gt;COMBO_INFILES_DIR&lt;span style=&quot;color:#cc7832;&quot;&gt;, &lt;br&gt;&lt;/span&gt;&lt;span style=&quot;color:#cc7832;&quot;&gt;    &lt;/span&gt;COMBO_IMAGES_DIR&lt;span style=&quot;color:#cc7832;&quot;&gt;, &lt;br&gt;&lt;/span&gt;&lt;span style=&quot;color:#cc7832;&quot;&gt;    &lt;/span&gt;&lt;span style=&quot;color:#94558d;&quot;&gt;self&lt;/span&gt;.combo_infiles_listing_frame)&lt;br&gt;&lt;/pre&gt;&lt;/pre&gt;&lt;/pre&gt;&lt;/pre&gt;" style="rounded=0;whiteSpace=wrap;html=1;" parent="1" vertex="1">
          <mxGeometry x="50" y="1970" width="620" height="180" as="geometry" />
        </mxCell>
        <mxCell id="NO1AC8OuLP__qubKFZFA-93" value="&lt;pre style=&quot;background-color:#2b2b2b;color:#a9b7c6;font-family:&#39;JetBrains Mono&#39;,monospace;font-size:9.8pt;&quot;&gt;&lt;pre style=&quot;font-family: &amp;quot;JetBrains Mono&amp;quot;, monospace; font-size: 9.8pt;&quot;&gt;&lt;pre style=&quot;font-size: 9.8pt; font-family: &amp;quot;JetBrains Mono&amp;quot;, monospace;&quot;&gt;&lt;pre style=&quot;font-family: &amp;quot;JetBrains Mono&amp;quot;, monospace; font-size: 9.8pt;&quot;&gt;&lt;/pre&gt;&lt;pre style=&quot;font-family: &amp;quot;JetBrains Mono&amp;quot;, monospace; font-size: 9.8pt;&quot;&gt;self.user_flow_combo_listing_frame = customtkinter.CTkScrollableFrame(&lt;br&gt;    &lt;span style=&quot;color:#aa4926;&quot;&gt;master&lt;/span&gt;=&lt;span style=&quot;color:#94558d;&quot;&gt;self&lt;/span&gt;.u_tabview_files.tab(&lt;span style=&quot;color:#6a8759;&quot;&gt;&quot;PDF Combo TST&quot;&lt;/span&gt;)&lt;span style=&quot;color:#cc7832;&quot;&gt;,&lt;br&gt;&lt;/span&gt;&lt;span style=&quot;color:#cc7832;&quot;&gt;    &lt;/span&gt;&lt;span style=&quot;color:#aa4926;&quot;&gt;label_text&lt;/span&gt;=&lt;span style=&quot;color:#6a8759;&quot;&gt;&quot;PDF Combo TST&quot;&lt;/span&gt;&lt;span style=&quot;color:#cc7832;&quot;&gt;,&lt;br&gt;&lt;/span&gt;&lt;span style=&quot;color:#cc7832;&quot;&gt;    &lt;/span&gt;&lt;span style=&quot;color:#aa4926;&quot;&gt;width&lt;/span&gt;=&lt;span style=&quot;color:#6897bb;&quot;&gt;200&lt;/span&gt;&lt;br&gt;&lt;/pre&gt;&lt;/pre&gt;&lt;/pre&gt;&lt;/pre&gt;" style="rounded=0;whiteSpace=wrap;html=1;" parent="1" vertex="1">
          <mxGeometry x="50" y="2150" width="620" height="180" as="geometry" />
        </mxCell>
        <mxCell id="NO1AC8OuLP__qubKFZFA-113" style="edgeStyle=orthogonalEdgeStyle;rounded=0;orthogonalLoop=1;jettySize=auto;html=1;" parent="1" source="NO1AC8OuLP__qubKFZFA-94" target="NO1AC8OuLP__qubKFZFA-38" edge="1">
          <mxGeometry relative="1" as="geometry" />
        </mxCell>
        <mxCell id="NO1AC8OuLP__qubKFZFA-94" value="&lt;pre style=&quot;background-color:#2b2b2b;color:#a9b7c6;font-family:&#39;JetBrains Mono&#39;,monospace;font-size:9.8pt;&quot;&gt;&lt;pre style=&quot;font-family: &amp;quot;JetBrains Mono&amp;quot;, monospace; font-size: 9.8pt;&quot;&gt;&lt;pre style=&quot;font-size: 9.8pt; font-family: &amp;quot;JetBrains Mono&amp;quot;, monospace;&quot;&gt;&lt;pre style=&quot;font-family: &amp;quot;JetBrains Mono&amp;quot;, monospace; font-size: 9.8pt;&quot;&gt;&lt;/pre&gt;&lt;pre style=&quot;font-family: &amp;quot;JetBrains Mono&amp;quot;, monospace; font-size: 9.8pt;&quot;&gt;self.u_combo_listing_refresh()&lt;br&gt;&lt;/pre&gt;&lt;/pre&gt;&lt;/pre&gt;&lt;/pre&gt;" style="rounded=0;whiteSpace=wrap;html=1;" parent="1" vertex="1">
          <mxGeometry x="50" y="2330" width="620" height="180" as="geometry" />
        </mxCell>
        <mxCell id="NO1AC8OuLP__qubKFZFA-105" value="&lt;pre style=&quot;background-color:#2b2b2b;color:#a9b7c6;font-family:&#39;JetBrains Mono&#39;,monospace;font-size:9.8pt;&quot;&gt;def &lt;span style=&quot;color:#ffc66d;&quot;&gt;get_combo_combo_pages_listing&lt;/span&gt;(&lt;span style=&quot;color:#94558d;&quot;&gt;self&lt;/span&gt;):&lt;br&gt;    listing = &lt;span style=&quot;color:#94558d;&quot;&gt;self&lt;/span&gt;.pdf_t.list_combo_combo_pages_dir()&lt;br&gt;    &lt;span style=&quot;color:#808080;&quot;&gt;# print(f&#39;get_combo_pages_listing: {listing}&#39;)&lt;br&gt;&lt;/span&gt;&lt;span style=&quot;color:#808080;&quot;&gt;    &lt;/span&gt;&lt;span style=&quot;color:#cc7832;&quot;&gt;return &lt;/span&gt;listing&lt;br&gt;&lt;/pre&gt;" style="text;html=1;strokeColor=none;fillColor=none;align=center;verticalAlign=middle;whiteSpace=wrap;rounded=0;" parent="1" vertex="1">
          <mxGeometry x="900" y="1100" width="60" height="30" as="geometry" />
        </mxCell>
        <mxCell id="NO1AC8OuLP__qubKFZFA-109" style="edgeStyle=orthogonalEdgeStyle;rounded=0;orthogonalLoop=1;jettySize=auto;html=1;entryX=1;entryY=0.5;entryDx=0;entryDy=0;" parent="1" source="NO1AC8OuLP__qubKFZFA-106" target="NO1AC8OuLP__qubKFZFA-87" edge="1">
          <mxGeometry relative="1" as="geometry" />
        </mxCell>
        <mxCell id="NO1AC8OuLP__qubKFZFA-106" value="&lt;pre style=&quot;background-color:#2b2b2b;color:#a9b7c6;font-family:&#39;JetBrains Mono&#39;,monospace;font-size:9.8pt;&quot;&gt;def &lt;span style=&quot;color:#ffc66d;&quot;&gt;test_combo_combo_listing&lt;/span&gt;(&lt;span style=&quot;color:#94558d;&quot;&gt;self&lt;/span&gt;&lt;span style=&quot;color:#cc7832;&quot;&gt;, &lt;/span&gt;listing&lt;span style=&quot;color:#cc7832;&quot;&gt;, &lt;/span&gt;in_dir&lt;span style=&quot;color:#cc7832;&quot;&gt;, &lt;/span&gt;image_dir&lt;span style=&quot;color:#cc7832;&quot;&gt;, &lt;/span&gt;out_frame):&lt;br&gt;    &lt;span style=&quot;color:#94558d;&quot;&gt;self&lt;/span&gt;.refresh_combo_combo_images(listing&lt;span style=&quot;color:#cc7832;&quot;&gt;, &lt;/span&gt;in_dir)&lt;span style=&quot;color:#6897bb;&quot;&gt;&lt;br&gt;&lt;/span&gt;&lt;/pre&gt;" style="text;html=1;strokeColor=none;fillColor=none;align=center;verticalAlign=middle;whiteSpace=wrap;rounded=0;" parent="1" vertex="1">
          <mxGeometry x="990" y="1190" width="60" height="30" as="geometry" />
        </mxCell>
        <mxCell id="NO1AC8OuLP__qubKFZFA-118" style="edgeStyle=orthogonalEdgeStyle;rounded=0;orthogonalLoop=1;jettySize=auto;html=1;entryX=0;entryY=0.5;entryDx=0;entryDy=0;" parent="1" source="NO1AC8OuLP__qubKFZFA-114" target="NO1AC8OuLP__qubKFZFA-116" edge="1">
          <mxGeometry relative="1" as="geometry" />
        </mxCell>
        <mxCell id="NO1AC8OuLP__qubKFZFA-114" value="&lt;pre style=&quot;font-weight: 700; background-color: rgb(43, 43, 43); color: rgb(169, 183, 198); font-family: &amp;quot;JetBrains Mono&amp;quot;, monospace; font-size: 9.8pt;&quot;&gt;def refresh_listings(&lt;span style=&quot;color: rgb(114, 115, 122);&quot;&gt;self&lt;/span&gt;):&lt;/pre&gt;" style="rounded=0;whiteSpace=wrap;html=1;" parent="1" vertex="1">
          <mxGeometry x="850" y="-735" width="220" height="60" as="geometry" />
        </mxCell>
        <mxCell id="NO1AC8OuLP__qubKFZFA-116" value="&lt;pre style=&quot;background-color:#2b2b2b;color:#a9b7c6;font-family:&#39;JetBrains Mono&#39;,monospace;font-size:9.8pt;&quot;&gt;self.combo_refresh()&lt;br&gt;&lt;/pre&gt;" style="rounded=1;whiteSpace=wrap;html=1;" parent="1" vertex="1">
          <mxGeometry x="1195" y="-820" width="210" height="60" as="geometry" />
        </mxCell>
        <mxCell id="NO1AC8OuLP__qubKFZFA-121" style="edgeStyle=orthogonalEdgeStyle;rounded=0;orthogonalLoop=1;jettySize=auto;html=1;entryX=1;entryY=0.5;entryDx=0;entryDy=0;" parent="1" source="NO1AC8OuLP__qubKFZFA-117" target="NO1AC8OuLP__qubKFZFA-114" edge="1">
          <mxGeometry relative="1" as="geometry" />
        </mxCell>
        <mxCell id="NO1AC8OuLP__qubKFZFA-117" value="&lt;pre style=&quot;background-color:#2b2b2b;color:#a9b7c6;font-family:&#39;JetBrains Mono&#39;,monospace;font-size:9.8pt;&quot;&gt;&lt;span style=&quot;color:#94558d;&quot;&gt;self&lt;/span&gt;.pages_refresh()&lt;/pre&gt;" style="rounded=1;whiteSpace=wrap;html=1;" parent="1" vertex="1">
          <mxGeometry x="1195" y="-735" width="210" height="60" as="geometry" />
        </mxCell>
        <mxCell id="NO1AC8OuLP__qubKFZFA-126" style="edgeStyle=orthogonalEdgeStyle;rounded=0;orthogonalLoop=1;jettySize=auto;html=1;" parent="1" source="NO1AC8OuLP__qubKFZFA-122" target="NO1AC8OuLP__qubKFZFA-125" edge="1">
          <mxGeometry relative="1" as="geometry" />
        </mxCell>
        <mxCell id="NO1AC8OuLP__qubKFZFA-122" value="&lt;pre style=&quot;background-color: rgb(43, 43, 43); color: rgb(169, 183, 198); font-family: &amp;quot;JetBrains Mono&amp;quot;, monospace; font-size: 9.8pt;&quot;&gt;def display_pdf_listing(&lt;span style=&quot;color: rgb(114, 115, 122);&quot;&gt;self&lt;/span&gt;):&lt;br&gt;    &lt;span style=&quot;color: rgb(204, 120, 50);&quot;&gt;return &lt;/span&gt;listing&lt;/pre&gt;" style="rounded=1;whiteSpace=wrap;html=1;" parent="1" vertex="1">
          <mxGeometry x="850" y="-645" width="270" height="60" as="geometry" />
        </mxCell>
        <mxCell id="NO1AC8OuLP__qubKFZFA-125" value="&lt;pre style=&quot;background-color:#2b2b2b;color:#a9b7c6;font-family:&#39;JetBrains Mono&#39;,monospace;font-size:9.8pt;&quot;&gt;self.display_listing(listing)&lt;br&gt;&lt;/pre&gt;" style="rounded=1;whiteSpace=wrap;html=1;" parent="1" vertex="1">
          <mxGeometry x="1190" y="-645" width="250" height="60" as="geometry" />
        </mxCell>
        <mxCell id="NO1AC8OuLP__qubKFZFA-131" style="edgeStyle=orthogonalEdgeStyle;rounded=0;orthogonalLoop=1;jettySize=auto;html=1;entryX=0;entryY=0.5;entryDx=0;entryDy=0;" parent="1" source="NO1AC8OuLP__qubKFZFA-127" target="NO1AC8OuLP__qubKFZFA-129" edge="1">
          <mxGeometry relative="1" as="geometry" />
        </mxCell>
        <mxCell id="NO1AC8OuLP__qubKFZFA-127" value="&lt;pre style=&quot;background-color: rgb(43, 43, 43); color: rgb(169, 183, 198); font-family: &amp;quot;JetBrains Mono&amp;quot;, monospace; font-size: 9.8pt;&quot;&gt;def display_meta_info(self):&lt;br&gt;    self.display_pdf_listing(selection)&lt;/pre&gt;" style="rounded=1;whiteSpace=wrap;html=1;" parent="1" vertex="1">
          <mxGeometry x="850" y="-555" width="330" height="60" as="geometry" />
        </mxCell>
        <mxCell id="NO1AC8OuLP__qubKFZFA-129" value="&lt;pre style=&quot;background-color:#2b2b2b;color:#a9b7c6;font-family:&#39;JetBrains Mono&#39;,monospace;font-size:9.8pt;&quot;&gt;self.pdf_t.list_pdf_dir()&lt;/pre&gt;&lt;pre style=&quot;background-color:#2b2b2b;color:#a9b7c6;font-family:&#39;JetBrains Mono&#39;,monospace;font-size:9.8pt;&quot;&gt;return listing&lt;/pre&gt;" style="rounded=1;whiteSpace=wrap;html=1;" parent="1" vertex="1">
          <mxGeometry x="1240" y="-555" width="220" height="60" as="geometry" />
        </mxCell>
        <mxCell id="HeGkhXPFHq6OK_QkcdSt-1" value="&lt;pre style=&quot;background-color:#2b2b2b;color:#a9b7c6;font-family:&#39;JetBrains Mono&#39;,monospace;font-size:9.8pt;&quot;&gt;&lt;pre style=&quot;font-family: &amp;quot;JetBrains Mono&amp;quot;, monospace; font-size: 9.8pt;&quot;&gt;&lt;br&gt;&lt;/pre&gt;&lt;pre style=&quot;font-family: &amp;quot;JetBrains Mono&amp;quot;, monospace; font-size: 9.8pt;&quot;&gt;P1&lt;/pre&gt;&lt;pre style=&quot;font-family: &amp;quot;JetBrains Mono&amp;quot;, monospace; font-size: 9.8pt;&quot;&gt;self.page_listing_frame&lt;br&gt;&lt;/pre&gt;&lt;pre style=&quot;font-family: &amp;quot;JetBrains Mono&amp;quot;, monospace; font-size: 9.8pt;&quot;&gt;self.combo_listing_frame&lt;/pre&gt;&lt;pre style=&quot;font-family: &amp;quot;JetBrains Mono&amp;quot;, monospace; font-size: 9.8pt;&quot;&gt;self.icon_listing_frame&lt;/pre&gt;&lt;pre style=&quot;font-family: &amp;quot;JetBrains Mono&amp;quot;, monospace; font-size: 9.8pt;&quot;&gt;self.combo_infiles_listing_frame&lt;/pre&gt;&lt;pre style=&quot;font-family: &amp;quot;JetBrains Mono&amp;quot;, monospace; font-size: 9.8pt;&quot;&gt;self.disp_combo_files_frame&lt;/pre&gt;&lt;pre style=&quot;font-family: &amp;quot;JetBrains Mono&amp;quot;, monospace; font-size: 9.8pt;&quot;&gt;P2&lt;/pre&gt;&lt;pre style=&quot;font-family: &amp;quot;JetBrains Mono&amp;quot;, monospace; font-size: 9.8pt;&quot;&gt;self.combo_infiles_listing_frame&lt;/pre&gt;&lt;pre style=&quot;font-family: &amp;quot;JetBrains Mono&amp;quot;, monospace; font-size: 9.8pt;&quot;&gt;self.user_flow_combo_listing_frame&lt;/pre&gt;&lt;/pre&gt;" style="rounded=0;whiteSpace=wrap;html=1;" vertex="1" parent="1">
          <mxGeometry x="220" y="-1160" width="450" height="290" as="geometry" />
        </mxCell>
        <mxCell id="HeGkhXPFHq6OK_QkcdSt-2" value="&lt;pre style=&quot;background-color:#2b2b2b;color:#a9b7c6;font-family:&#39;JetBrains Mono&#39;,monospace;font-size:9.8pt;&quot;&gt;self.disp_combo_files_frame&lt;/pre&gt;" style="text;html=1;strokeColor=none;fillColor=none;align=center;verticalAlign=middle;whiteSpace=wrap;rounded=0;" vertex="1" parent="1">
          <mxGeometry x="-290" y="-1050" width="60" height="30" as="geometry" />
        </mxCell>
        <mxCell id="HeGkhXPFHq6OK_QkcdSt-3" value="&lt;pre style=&quot;background-color:#2b2b2b;color:#a9b7c6;font-family:&#39;JetBrains Mono&#39;,monospace;font-size:9.8pt;&quot;&gt;self.user_flow_combo_listing_frame&lt;/pre&gt;" style="text;html=1;strokeColor=none;fillColor=none;align=center;verticalAlign=middle;whiteSpace=wrap;rounded=0;" vertex="1" parent="1">
          <mxGeometry x="-280" y="-1010" width="60" height="30" as="geometry" />
        </mxCell>
        <mxCell id="HeGkhXPFHq6OK_QkcdSt-4" value="&lt;pre style=&quot;background-color:#2b2b2b;color:#a9b7c6;font-family:&#39;JetBrains Mono&#39;,monospace;font-size:9.8pt;&quot;&gt;load_PDF_file&lt;/pre&gt;" style="text;html=1;strokeColor=none;fillColor=none;align=center;verticalAlign=middle;whiteSpace=wrap;rounded=0;" vertex="1" parent="1">
          <mxGeometry x="-280" y="-960" width="60" height="30" as="geometry" />
        </mxCell>
      </root>
    </mxGraphModel>
  </diagram>
</mxfile>
